<svg id="Layer_1" data-name="Layer 1" xmlns="http://www.w3.org/2000/svg" width="200" height="90.57" viewBox="0 0 200 90.57"><defs><style>.cls-1{fill:#02384f;}.cls-1,.cls-2{fill-rule:evenodd;}.cls-2{fill:#03b27b;}</style></defs><title>Logo-ADVcash</title><g id="Page-1"><g id="adv-1-1-main-page-ver-2-copy-3"><g id="Group-12"><g id="logotype-copy"><g id="Group-26"><g id="Group-10"><path id="Fill-8" class="cls-1" d="M117.06,52.74a10.1,10.1,0,0,1,0-13.37,8.39,8.39,0,0,1,6.47-2.75,9.63,9.63,0,0,1,5.14,1.4v1.65a9.44,9.44,0,0,0-5-1.46,7.24,7.24,0,0,0-5.4,2.25,8.42,8.42,0,0,0,0,11.22,7.33,7.33,0,0,0,5.4,2.23,8.64,8.64,0,0,0,5.28-1.7v1.7a9.32,9.32,0,0,1-5.5,1.58,8.31,8.31,0,0,1-6.43-2.75"/></g><g id="Group-13"><path id="Fill-11" class="cls-1" d="M170.66,55h-1.61V28.91h1.61V40.2a9.43,9.43,0,0,1,7.25-3.57c4.32,0,6.61,2.71,6.61,7.49V55h-1.61V44.46c0-2.56-.75-4.37-1.93-5.16a5.78,5.78,0,0,0-3.53-1.09,6.84,6.84,0,0,0-3.9,1.28,8.75,8.75,0,0,0-2.89,2.89Z"/></g><path id="Fill-14" class="cls-1" d="M65.66,47.83h5l-2.48-6.24ZM59.21,55,66.51,37h3.36L77.17,55H73.45l-1.68-4.15H64.56L62.88,55Z"/><path id="Fill-16" class="cls-1" d="M83,51.73h2.58c3.8,0,6-2.11,6-5.67s-2.24-5.67-6-5.67H83ZM79.5,55v-18h6.37a9.35,9.35,0,0,1,6.75,2.51,8.59,8.59,0,0,1,2.6,6.47,8.65,8.65,0,0,1-2.6,6.49A9.38,9.38,0,0,1,85.87,55Z"/><polygon id="Fill-18" class="cls-1" points="103 55.14 95.84 37.08 99.71 37.08 104.67 50.01 109.67 37.08 113.46 37.08 106.31 55.14 103 55.14"/><g id="Group-22"><path id="Fill-20" class="cls-1" d="M145.72,50.33A8.43,8.43,0,0,1,139,53.91c-3,0-5.36-1.44-5.36-4.33,0-2.6,2.22-4.33,5.83-4.33a11,11,0,0,1,6.25,2.1Zm-5.79-13.71a10.61,10.61,0,0,0-6.07,1.77v1.74a9.89,9.89,0,0,1,5.79-1.92c3.85,0,6.07,1.65,6.07,5.12V45.7a12.09,12.09,0,0,0-6.68-2A7.78,7.78,0,0,0,134,45.36a5.15,5.15,0,0,0-2,4.25,5.28,5.28,0,0,0,1.92,4.33,7.4,7.4,0,0,0,4.65,1.55,8.92,8.92,0,0,0,7.32-3.43v3h1.47V43.18c0-4.37-3-6.56-7.4-6.56Z"/></g><g id="Group-25"><path id="Fill-23" class="cls-1" d="M151,53.57V51.72a11.67,11.67,0,0,0,7,2.19c3.32,0,5.46-1.4,5.46-3.54,0-4.81-11.93-2.5-11.93-8.89,0-3,2.4-4.86,6.58-4.86a10.69,10.69,0,0,1,6.14,1.66V40a11,11,0,0,0-6-1.8c-3.32,0-5,1.31-5,3.27,0,5.07,11.94,2.15,11.94,8.92a4.33,4.33,0,0,1-2,3.73,8.76,8.76,0,0,1-5,1.36,12.76,12.76,0,0,1-7-1.92"/></g></g><g id="Group"><g id="Group-2"><path id="Combined-Shape" class="cls-2" d="M53.81,45.78H45.74l-2.67-6.41H56.5Zm1.43,3.31L52.15,55.5H49.41l-3.06-6.41Zm-13.64,0,2.74,6.45H20.55L17.7,49.09ZM15.48,39.47H36.27l-2.7,6.41H18.29Z"/><path id="Combined-Shape-Copy" class="cls-1" d="M33.52,45.9l-1.23,3.2H24.86l1.27-3.2ZM21.76,55.58h8L26.5,62.94H18.33ZM33.17,27.63h5.92l15,35.26H45.91L36.26,39.5H28.12Z"/></g></g></g></g></g></g></svg>