<svg xmlns="http://www.w3.org/2000/svg" width="72.402" height="69.5" viewBox="0 0 72.402 69.5"><defs><style>.a{fill:#ff4490;}</style></defs><path class="a" d="M72.262,48.356A28.542,28.542,0,0,0,50.068,23.329V19.736a4.808,4.808,0,0,0-1.16-9.474H38.726a4.808,4.808,0,0,0-1.161,9.474v3.6A28.4,28.4,0,0,0,23.639,31a28.7,28.7,0,0,0-2.4,2.725c-.035,0-.071-.005-.107-.005H11.054a1.414,1.414,0,0,0,0,2.828h8.26A28.348,28.348,0,0,0,16.8,41.982H1.414a1.414,1.414,0,0,0,0,2.828H16.006a28.752,28.752,0,0,0-.7,5.435H9.05a1.414,1.414,0,0,0,0,2.828h6.3a28.71,28.71,0,0,0,.883,5.435H7.071a1.414,1.414,0,0,0,0,2.828H17.134a28.561,28.561,0,0,0,23.88,18.286q1.4.138,2.8.138a28.634,28.634,0,0,0,15.589-4.607,1.414,1.414,0,0,0-1.543-2.37,25.737,25.737,0,1,1,7.58-7.59,1.414,1.414,0,1,0,2.372,1.54A28.656,28.656,0,0,0,72.262,48.356ZM36.746,15.07a1.982,1.982,0,0,1,1.98-1.98H48.907a1.98,1.98,0,0,1,0,3.96H38.726A1.982,1.982,0,0,1,36.746,15.07Zm3.647,7.782V19.878H47.24v2.969A28.813,28.813,0,0,0,40.393,22.853Z" transform="translate(0 -10.262)"/><path class="a" d="M437.184,425.5a1.415,1.415,0,1,0,1,.414A1.422,1.422,0,0,0,437.184,425.5Z" transform="translate(-374.147 -366.78)"/><path class="a" d="M176.809,144.609a21.937,21.937,0,1,0,21.937,21.937A21.962,21.962,0,0,0,176.809,144.609Zm0,41.046a19.109,19.109,0,1,1,19.109-19.109A19.131,19.131,0,0,1,176.809,185.655Z" transform="translate(-132.971 -125.611)"/><path class="a" d="M273.471,219.825l-7,7a4.383,4.383,0,0,0-3.882,0l-3.135-3.135a1.414,1.414,0,0,0-2,2l3.135,3.135a4.394,4.394,0,1,0,7.882,0l6.8-6.8h0l.205-.205a1.414,1.414,0,0,0-2-2Zm-8.945,12.511a1.566,1.566,0,1,1,1.566-1.566A1.568,1.568,0,0,1,264.526,232.336Z" transform="translate(-220.688 -189.835)"/><path class="a" d="M400.379,289.86h-1.31a1.414,1.414,0,1,0,0,2.828h1.31a1.414,1.414,0,1,0,0-2.828Z" transform="translate(-341.422 -250.321)"/><path class="a" d="M195.806,289.616H194.5a1.414,1.414,0,0,0,0,2.828h1.31a1.414,1.414,0,0,0,0-2.828Z" transform="translate(-165.778 -250.112)"/><path class="a" d="M301.537,186.957a1.414,1.414,0,0,0,1.414-1.414v-1.31a1.414,1.414,0,1,0-2.828,0v1.31A1.414,1.414,0,0,0,301.537,186.957Z" transform="translate(-257.682 -158.417)"/><path class="a" d="M301.293,387.393a1.414,1.414,0,0,0-1.414,1.414v1.31a1.414,1.414,0,0,0,2.828,0v-1.31A1.414,1.414,0,0,0,301.293,387.393Z" transform="translate(-257.472 -334.062)"/><path class="a" d="M1.414,351.44a1.414,1.414,0,1,0,1,2.414,1.414,1.414,0,0,0-1-2.414Z" transform="translate(0 -303.193)"/></svg>