<svg xmlns="http://www.w3.org/2000/svg" width="60.092" height="60.051" viewBox="0 0 60.092 60.051"><defs><style>.a{fill:#ff4490;}</style></defs><path class="a" d="M59.165,12.508H54.272A5.058,5.058,0,0,0,54.9,7.794L53.413,3.809A5.079,5.079,0,0,0,46.473.99L34.739,6.563A3.523,3.523,0,0,0,32.684,5.9H27.408a3.525,3.525,0,0,0-2.055.66L13.62.99a5.08,5.08,0,0,0-6.94,2.818L5.2,7.794a5.093,5.093,0,0,0,.241,4.085,5,5,0,0,0,.384.629H.928A.927.927,0,0,0,0,13.435v6.677a.927.927,0,0,0,1.855,0v-5.75H8.3c.1.036.208.07.314.1L16.4,16.6a61.953,61.953,0,0,0-4.563,8.33H1.855V23.822a.927.927,0,0,0-1.855,0v2.041a.928.928,0,0,0,.927.927H4.235V59.624a.927.927,0,0,0,.927.927H54.93a.927.927,0,0,0,.927-.927V54.238a.927.927,0,1,0-1.855,0V58.7H35.61V27.36a49.664,49.664,0,0,1,5.224,15.976.927.927,0,0,0,.688.764.914.914,0,0,0,.23.029.927.927,0,0,0,.74-.369,51.71,51.71,0,0,0,3.692-5.639,52.859,52.859,0,0,1,5.42,4.24.927.927,0,0,0,1.535-.827A62.2,62.2,0,0,0,49.062,26.79H54V50.529a.927.927,0,0,0,1.855,0V26.79h3.308a.927.927,0,0,0,.927-.927V13.435a.926.926,0,0,0-.927-.927Zm-11.9-9.842a3.225,3.225,0,0,1,4.406,1.789L53.157,8.44a3.225,3.225,0,0,1-2.167,4.233L36.227,16.737V12.28c3.318-2.032,11.591-6.223,13.65-3.317A.927.927,0,1,0,51.39,7.892c-1.589-2.243-4.938-2.352-9.954-.324a44.175,44.175,0,0,0-5.21,2.562V9.446a3.526,3.526,0,0,0-.288-1.4ZM27.408,7.758h5.276a1.69,1.69,0,0,1,1.688,1.688v7.666A1.689,1.689,0,0,1,32.684,18.8H27.408a1.689,1.689,0,0,1-1.688-1.688V9.446a1.689,1.689,0,0,1,1.688-1.688ZM25.85,24.934a49.465,49.465,0,0,1,2.892-4.28h2.61a49.258,49.258,0,0,1,2.892,4.28ZM7.088,11.034A3.192,3.192,0,0,1,6.935,8.44L8.418,4.455a3.224,3.224,0,0,1,4.405-1.789L24.154,8.048a3.521,3.521,0,0,0-.288,1.4v.737a44.328,44.328,0,0,0-5.3-2.616c-5.016-2.029-8.365-1.92-9.954.324a.927.927,0,1,0,1.513,1.072C12.2,6.03,20.611,10.327,23.866,12.336v4.4L9.1,12.673a3.19,3.19,0,0,1-2.015-1.639Zm17.194,7.742a3.558,3.558,0,0,0,2.239,1.766A51.6,51.6,0,0,0,17.8,40.856a50.75,50.75,0,0,1-2.749-4.507.927.927,0,0,0-1.322-.336,53.728,53.728,0,0,0-4.518,3.3,60.593,60.593,0,0,1,9.069-22.19ZM6.09,26.79h4.94A62.22,62.22,0,0,0,6.952,41.534a.927.927,0,0,0,1.535.827,52.812,52.812,0,0,1,5.421-4.24A51.691,51.691,0,0,0,17.6,43.76a.927.927,0,0,0,.74.37.915.915,0,0,0,.23-.029.926.926,0,0,0,.688-.764,49.689,49.689,0,0,1,5.224-15.977V58.7H6.09ZM26.337,58.7V26.79h7.419V58.7Zm20.03-22.683a.928.928,0,0,0-1.322.336A50.688,50.688,0,0,1,42.3,40.856a51.584,51.584,0,0,0-8.725-20.314,3.556,3.556,0,0,0,2.24-1.766l6.007-1.654a60.625,60.625,0,0,1,9.068,22.19,53.812,53.812,0,0,0-4.518-3.3Zm11.87-11.079H48.259A62,62,0,0,0,43.7,16.6l7.785-2.143c.106-.029.21-.063.314-.1h6.442Zm0,0" transform="translate(0 -0.5)"/></svg>