<svg xmlns="http://www.w3.org/2000/svg" width="66.944" height="66.944" viewBox="0 0 66.944 66.944"><defs><style>.a{fill:#ff4490;}</style></defs><g transform="translate(24.319 7.845)"><path class="a" d="M187.307,60a1.307,1.307,0,1,0,1.307,1.307A1.308,1.308,0,0,0,187.307,60Z" transform="translate(-186 -60)"/></g><g transform="translate(29.466 10.46)"><path class="a" d="M229.367,87.845a1.307,1.307,0,0,1,0-2.615,2.1,2.1,0,0,1,1.414.683,1.308,1.308,0,0,0,1.819-1.879,5.051,5.051,0,0,0-1.925-1.2V81.307a1.307,1.307,0,0,0-2.615,0V82.84a3.922,3.922,0,0,0,1.307,7.62,1.307,1.307,0,0,1,0,2.615,2.366,2.366,0,0,1-1.7-.989,1.308,1.308,0,0,0-2,1.683,5.421,5.421,0,0,0,2.392,1.7V97a1.307,1.307,0,1,0,2.615,0V95.465a3.922,3.922,0,0,0-1.307-7.62Z" transform="translate(-225.361 -80)"/></g><g transform="translate(38.179 19.089)"><path class="a" d="M315.535,146a5.236,5.236,0,0,0-5.23,5.23v9.319a5.229,5.229,0,0,0-5.005,1.366l-8.769,8.769a6.491,6.491,0,0,0-1.916,4.624V183h-1.307A1.308,1.308,0,0,0,292,184.31v8.237a1.308,1.308,0,0,0,1.307,1.307h18.3a1.308,1.308,0,0,0,1.307-1.307V184.31A1.308,1.308,0,0,0,311.612,183H310.3v-.617a1.316,1.316,0,0,1,.383-.924l8.161-8.161a6.5,6.5,0,0,0,1.915-4.623V151.23A5.236,5.236,0,0,0,315.535,146Zm-5.23,45.239h-15.69v-5.622H310.3Zm7.845-22.563A3.9,3.9,0,0,1,317,171.45l-8.161,8.161a3.95,3.95,0,0,0-1.149,2.773V183H297.23v-7.695a3.894,3.894,0,0,1,1.149-2.774l8.769-8.769a2.611,2.611,0,0,1,3.589-.1l.022.02c.03.025.058.053.086.081a2.613,2.613,0,0,1,0,3.7l-6.5,6.5a1.308,1.308,0,1,0,1.849,1.849l6.5-6.5a5.227,5.227,0,0,0,.225-7.155V151.23a2.615,2.615,0,1,1,5.23,0Z" transform="translate(-292 -146)"/></g><g transform="translate(0 19.089)"><path class="a" d="M27.457,183H26.15v-7.695a6.491,6.491,0,0,0-1.915-4.623l-8.769-8.769a5.228,5.228,0,0,0-5.005-1.366V151.23a5.23,5.23,0,1,0-10.46,0v17.446A6.5,6.5,0,0,0,1.915,173.3l8.161,8.161a1.316,1.316,0,0,1,.383.924V183H9.152a1.308,1.308,0,0,0-1.307,1.307v8.237a1.308,1.308,0,0,0,1.307,1.307h18.3a1.308,1.308,0,0,0,1.307-1.307V184.31A1.308,1.308,0,0,0,27.457,183ZM3.764,171.45a3.9,3.9,0,0,1-1.149-2.775V151.23a2.615,2.615,0,1,1,5.23,0v10.925a5.226,5.226,0,0,0,.225,7.155l6.537,6.537A1.308,1.308,0,1,0,16.456,174l-6.538-6.538a2.613,2.613,0,0,1,0-3.7c.029-.028.057-.056.086-.081l.022-.02a2.611,2.611,0,0,1,3.589.1l8.77,8.77a3.894,3.894,0,0,1,1.149,2.774V183H13.075v-.617a3.949,3.949,0,0,0-1.149-2.773ZM26.15,191.239H10.46v-5.622H26.15Z" transform="translate(0 -146)"/></g><g transform="translate(13.859)"><path class="a" d="M125.612,0a19.612,19.612,0,1,0,19.612,19.612A19.635,19.635,0,0,0,125.612,0Zm0,36.61a17,17,0,1,1,17-17A17.017,17.017,0,0,1,125.612,36.61Z" transform="translate(-106)"/></g><g transform="translate(19.089 5.234)"><path class="a" d="M169.411,43.213A14.481,14.481,0,0,0,157.2,40.37a1.307,1.307,0,1,0,.551,2.556,11.878,11.878,0,0,1,10.021,2.321,11.765,11.765,0,1,1-17.762,3.606,1.308,1.308,0,0,0-2.3-1.237,14.384,14.384,0,1,0,21.709-4.4Z" transform="translate(-146 -40.031)"/></g></svg>