<svg id="Layer_1" data-name="Layer 1" xmlns="http://www.w3.org/2000/svg" width="204.1" height="100.3" viewBox="0 0 204.1 100.3"><defs><style>.cls-1{fill:#83ba3b;}</style></defs><title>Logo-Neteller</title><path class="cls-1" d="M174.93,39.07c-1.93-1.32-4.85-2-8.67-2h-10l-3.72,20.21H139.4l.84-4.58h7.9l.94-5.15h-7.9L142,43h8.14l1.08-5.92H134.72l-3.54,19.18h-6.07l3.56-19.18H120L116.5,56.25h-5.91l3.56-19.17h-8.64l-3.73,20.21H88.57l.83-4.58h7.94l.93-5.12H90.35L91.19,43h8.23l1.08-5.92H49L46,53.1l-5.84-16h-9L26.41,63.22H35l2.92-16.46,5.67,16.46H74.25L78,43h4.8L79.05,63.22h80.76l2.34-12.76,3.79,12.76h8.56l-3.92-10.43.9-.19a7.74,7.74,0,0,0,4.59-2.7,8.38,8.38,0,0,0,1.62-5.27,6.25,6.25,0,0,0-2.77-5.57ZM66.8,57.29H53.69l.85-4.58h8.22l.93-5.17H55.55L56.33,43H69.42L66.8,57.29Zm101.07-8.8a6.66,6.66,0,0,1-3.82.89h-1.7l1.3-7h1.25a5.87,5.87,0,0,1,3.17.69,2.74,2.74,0,0,1,1.21,2.44,3.44,3.44,0,0,1-1.42,3Z"/></svg>