<svg id="Layer_1" data-name="Layer 1" xmlns="http://www.w3.org/2000/svg" width="204.1" height="100.3" viewBox="0 0 204.1 100.3"><defs><style>.cls-1{fill:#2097d4;}.cls-2,.cls-4{fill:#010101;}.cls-3{fill:#66b4df;}.cls-4{isolation:isolate;font-size:18.17px;font-family:ArialMT, Arial;}</style></defs><title>Logo-Payeer</title><g id="Payeer"><path class="cls-1" d="M35.83,43.33a5.57,5.57,0,0,0-3.45-.86H29.94v7.46h1.87c1.72,0,3.16-.28,3.87-1A3.23,3.23,0,0,0,37,46.06,3.07,3.07,0,0,0,35.83,43.33Z"/><path class="cls-1" d="M33.53,28A22.18,22.18,0,1,0,55.78,50.22,22.27,22.27,0,0,0,33.53,28Zm4.88,23.11a9.84,9.84,0,0,1-6.17,1.73h-2.3v8H26.5V39.45h6.17a10.11,10.11,0,0,1,6,1.58c1.43,1,2,2.73,2,4.88A6.76,6.76,0,0,1,38.41,51.08Z"/><path class="cls-2" d="M60.52,60.7V39.45h6.89a35.58,35.58,0,0,1,5.17.29,5,5,0,0,1,3,2.16,6.22,6.22,0,0,1,1.3,4.16,7.49,7.49,0,0,1-.72,3.3,5.35,5.35,0,0,1-1.87,2.15,4.63,4.63,0,0,1-2.3,1,31.41,31.41,0,0,1-4.45.29H64.68v8l-4.16-.15ZM64.68,43v6H67a16.26,16.26,0,0,0,3.45-.28,3.2,3.2,0,0,0,1.29-1,3.1,3.1,0,0,0,.43-1.72,2.74,2.74,0,0,0-.72-1.87,2.65,2.65,0,0,0-1.72-1A16,16,0,0,0,66.55,43Z"/><path class="cls-2" d="M97.27,60.7H92.53l-1.86-4.88H82.2L80.47,60.7H75.88l8.33-21.25H88.8Zm-7.89-8.32-2.88-7.9-2.87,7.9Z"/><path class="cls-2" d="M102.44,60.7V51.8L94.69,39.45h5l5,8.47,4.88-8.47h4.88L106.75,51.8v8.9Z"/><path class="cls-3" d="M116.65,60.7V39.45h15.79V43H121v4.74h10.62v3.59H121v5.74h11.91V60.7Z"/><path class="cls-3" d="M136.46,60.7V39.45h15.8V43H140.77v4.74h10.62v3.59H140.77v5.74h11.92V60.7Z"/><path class="cls-3" d="M156.28,60.7V39.45h9a14.9,14.9,0,0,1,5,.58,4.72,4.72,0,0,1,2.44,2,6.59,6.59,0,0,1,.87,3.3,5.75,5.75,0,0,1-1.44,4,7.11,7.11,0,0,1-4.16,2,15.67,15.67,0,0,1,2.29,1.72,37.67,37.67,0,0,1,2.44,3.45l2.59,4.16H170.2L167,56.11A26.9,26.9,0,0,0,164.75,53a3.45,3.45,0,0,0-1.3-.86,6.78,6.78,0,0,0-2.15-.29h-.72v8.9Zm4.3-12.2h3.16a18.29,18.29,0,0,0,3.88-.29,1.75,1.75,0,0,0,1.14-.86,2.86,2.86,0,0,0,.44-1.58,2.28,2.28,0,0,0-.58-1.72,2.81,2.81,0,0,0-1.58-.86c-.28,0-1.43-.15-3.16-.15h-3.3V48.5Z"/><path class="cls-2" d="M187.57,54.82a5.87,5.87,0,1,1-1.72-4.17,5.52,5.52,0,0,1,1.72,4.17Zm-5.88-5.17a5.07,5.07,0,0,0-3.59,8.61,5.07,5.07,0,0,0,7.17-7.18,5.35,5.35,0,0,0-3.58-1.43Zm-.15,1.86a4.13,4.13,0,0,1,1.72.29,1.56,1.56,0,0,1,1,1.58,1.39,1.39,0,0,1-.57,1.29,2,2,0,0,1-1,.29,2.22,2.22,0,0,1,1.15.57,1.37,1.37,0,0,1,.29,1v1.29h-1V57c0-.72-.14-1.29-.57-1.44a3.3,3.3,0,0,0-1.3-.14h-.86V58h-1.15V51.51Zm1.72,2a1.1,1.1,0,0,0-.43-1,3.07,3.07,0,0,0-1.43-.29h-1v2.3h1a2.88,2.88,0,0,0,1.15-.14.81.81,0,0,0,.71-.87Z"/><text class="cls-4" transform="translate(187.77 60.73)"> </text></g></svg>