<svg id="Layer_1" data-name="Layer 1" xmlns="http://www.w3.org/2000/svg" width="204.1" height="100.3" viewBox="0 0 204.1 100.3"><defs><style>.cls-1,.cls-3{fill:#e34026;}.cls-2{fill:#fff;}.cls-2,.cls-3{fill-rule:evenodd;}</style></defs><title>Logo-PerfectMoney</title><circle class="cls-1" cx="33" cy="50.15" r="19.6"/><path class="cls-2" d="M17.9,50.45s8.7,1.9,10-2.2-2.8-4.8-2.8-4.8H23.3v6.7H21.4v-6.5H19.7V43s6.3,0,7,.1c3.5.4,5.2,6.7-.4,7.9a16.46,16.46,0,0,1-8.4-.5Zm3.5,1.4v4s0,.9-.8.9h-1v.7H25v-.7H23.8a.72.72,0,0,1-.6-.7V52l-1.8-.1Zm6.9,5.6h5.5v-.8H32.2a1.11,1.11,0,0,1-.5-.9V45.65l6.1,11.8,5.9-11.6-.1,10a.68.68,0,0,1-.7.8h-1v.6h5.5v-.8H46.1s-.5.1-.5-.5V43.85s0-.3.5-.3h1.1v-.8H43.7l-5.6,11.5-5.5-11.5h-3v.7h1s.3,0,.3.5-.1,11.7-.1,11.7a.88.88,0,0,1-.9.9H28.4l-.1.9Z"/><path class="cls-1" d="M70.46,50.74v.92a4.06,4.06,0,0,0,.91,2.62,3,3,0,0,0,2.28,1.14,3.71,3.71,0,0,0,2.51-1c.23-.22.34-.34.46-.34s.23.12.23.34a2.72,2.72,0,0,1-1.49,1.26,5.2,5.2,0,0,1-2.28.57A3.92,3.92,0,0,1,70,54.85a5,5,0,0,1-1.25-3.31,5.16,5.16,0,0,1,1.37-3.65,4.37,4.37,0,0,1,3-1.48,3.7,3.7,0,0,1,2.74,1.14,3.6,3.6,0,0,1,1.26,2.62.42.42,0,0,1-.12.35c0,.11-.34.11-.8.11Zm0-.57c.91,0,1.94.12,2.85.12h.57a2.34,2.34,0,0,0,1-.23.88.88,0,0,0,.34-.8,2.29,2.29,0,0,0-.68-1.6A2,2,0,0,0,73.08,47a2.15,2.15,0,0,0-1.59.8A2.94,2.94,0,0,0,70.46,50.17Z"/><path class="cls-1" d="M81.41,48.92a5,5,0,0,1,1.48-1.83,2.61,2.61,0,0,1,1.71-.57,1.12,1.12,0,0,1,1,.46,1.25,1.25,0,0,1,.46,1c0,.68-.34,1-.91,1a.84.84,0,0,1-.69-.57c-.23-.45-.57-.8-.91-.8a1.82,1.82,0,0,0-1.14.57,4.17,4.17,0,0,0-.8,1.37,14.5,14.5,0,0,0-.23,3.08,7.8,7.8,0,0,0,.23,2.51c.11.23.45.35.91.46a.39.39,0,0,1,.23.11c0,.12-.23.23-.57.23H78.67c-.23,0-.34-.11-.34-.23s.11-.22.46-.22a1,1,0,0,0,.91-.46,14.62,14.62,0,0,0,.11-2.85,35.1,35.1,0,0,0-.11-4.34,1.05,1.05,0,0,0-1.14-.8c-.23,0-.46-.11-.46-.22s0-.12.12-.12a3.66,3.66,0,0,1,1-.11l2.06-.12C81.3,46.87,81.41,47.66,81.41,48.92Z"/><path class="cls-1" d="M90.19,47.55v6.5a1.9,1.9,0,0,0,.35,1.14c.23.35.57.46,1.14.57.23,0,.34.12.34.23s-.11.12-.23.12L90,55.88a11.66,11.66,0,0,0-2.4.11h-.11c-.12,0-.23,0-.23-.11s.11-.23.34-.23a1,1,0,0,0,.69-.23.59.59,0,0,0,.22-.45c0-.23.12-.92.12-2.17s.11-2.4.11-3.65v-1.6c-.57,0-1-.11-1.25-.11s-.46-.12-.46-.23a.83.83,0,0,1,.23-.57,3.74,3.74,0,0,1,1.48-.12,11.87,11.87,0,0,1,.34-3.08,3.68,3.68,0,0,1,3.77-2.74,3.43,3.43,0,0,1,2.05.46,1.34,1.34,0,0,1,.57,1.26c0,.57-.23.79-.68.79A.62.62,0,0,1,94.3,43a4.78,4.78,0,0,1-.57-.92,1.57,1.57,0,0,0-1.48-1,1.61,1.61,0,0,0-1.71,1.37,11.11,11.11,0,0,0-.35,2.73v1.37h.58a3.36,3.36,0,0,1,1.25.12c.23,0,.46.11.46.23a.41.41,0,0,1-.12.34.68.68,0,0,1-.57.23h-.91C90.77,47.55,90.54,47.55,90.19,47.55Z"/><path class="cls-1" d="M95.56,50.74v.92a4.06,4.06,0,0,0,.91,2.62,3,3,0,0,0,2.28,1.14,3.73,3.73,0,0,0,2.51-1c.23-.22.34-.34.46-.34s.23.12.23.34a2.72,2.72,0,0,1-1.49,1.26,5.2,5.2,0,0,1-2.28.57,3.92,3.92,0,0,1-3.08-1.37,5,5,0,0,1-1.25-3.31,5.2,5.2,0,0,1,1.36-3.65,4.39,4.39,0,0,1,3-1.48,3.7,3.7,0,0,1,2.74,1.14,3.59,3.59,0,0,1,1.25,2.62.45.45,0,0,1-.11.35c0,.11-.34.11-.8.11Zm0-.57c.91,0,1.94.12,2.85.12H99a2.34,2.34,0,0,0,1-.23.91.91,0,0,0,.34-.8,2.26,2.26,0,0,0-.69-1.6A2,2,0,0,0,98.18,47a2.17,2.17,0,0,0-1.6.8C96,48.12,95.67,48.92,95.56,50.17Z"/><path class="cls-1" d="M103.43,51.43a5.58,5.58,0,0,1,1.25-3.54,4.08,4.08,0,0,1,3.2-1.48,5.23,5.23,0,0,1,2.28.57,1.83,1.83,0,0,1,1.14,1.48.83.83,0,0,1-.23.57.45.45,0,0,1-.45.23c-.46,0-.69-.34-.92-1a1.8,1.8,0,0,0-1.82-1.48,2.11,2.11,0,0,0-1.94,1.14,5.25,5.25,0,0,0-.69,2.85,6.4,6.4,0,0,0,.92,3.43,2.61,2.61,0,0,0,2.16,1.37,2.72,2.72,0,0,0,1.71-.69,2.58,2.58,0,0,0,.92-1.6c0-.22.11-.34.23-.34a.25.25,0,0,1,.22.23,3,3,0,0,1-1,2,3.63,3.63,0,0,1-2.74.92,3.91,3.91,0,0,1-3.08-1.37A4.89,4.89,0,0,1,103.43,51.43Z"/><path class="cls-1" d="M116.32,47.32c-.11,1.6-.11,3.2-.11,4.79,0,1.26.11,2.06.45,2.4a1.65,1.65,0,0,0,1.26.57,2.08,2.08,0,0,0,1.25-.46c.23-.11.23-.11.34-.11s.12,0,.12.11-.23.46-.8.8a3.55,3.55,0,0,1-1.94.57,1.8,1.8,0,0,1-1.71-.8,4.35,4.35,0,0,1-.57-2.39c0-1.14.11-3,.23-5.59a5.56,5.56,0,0,1-1-.12h-.69a.38.38,0,0,1-.22-.11.25.25,0,0,1,.22-.23,5.65,5.65,0,0,0,1.49-1,3.26,3.26,0,0,0,1.25-2.28c0-.23.12-.34.23-.34s.23.11.23.34v3h2.39c.46,0,.69,0,.69.11a4.23,4.23,0,0,1-.11.69C118.94,47.21,117.92,47.21,116.32,47.32Z"/><path class="cls-1" d="M130.92,41.39c.8,1.6,1.48,3.08,2.06,4.33.79,1.49,1.36,2.74,1.82,3.77s.91,1.94,1.48,3a99.14,99.14,0,0,0,5.37-11h4.44a.25.25,0,0,1,.23.23.24.24,0,0,1-.23.23,3.72,3.72,0,0,0-1.59.46,1.79,1.79,0,0,0-.46,1.25c-.11.57-.11,1.71-.23,3.31s-.11,3-.11,4v3.54a1,1,0,0,0,.34.8,2.6,2.6,0,0,0,1.26.45c.22,0,.22.12.22.23s-.11.12-.34.12h-5.47c-.23,0-.35-.12-.35-.23s.12-.12.23-.23a6.2,6.2,0,0,0,1.26-.34c.22-.12.34-.46.45-.8a14.76,14.76,0,0,0,.12-2.85l.23-5.37.11-2.62c0-.23,0-.34-.11-.34s-.12.11-.23.23l-2.17,4.33c-1.37,2.74-2.28,4.57-2.62,5.36L135.94,55a6,6,0,0,0-.34.79l-.12.12c-.11,0-.11-.12-.22-.34a34.14,34.14,0,0,0-2.06-4.34c-.68-1.37-1.37-3-2.28-4.79a15.07,15.07,0,0,0-1.48-2.74.11.11,0,0,1-.12-.11c-.11,0-.11.11-.11.23l-.11,6.73v2.16a3.64,3.64,0,0,0,.45,2.29,1.9,1.9,0,0,0,1.37.57c.34,0,.57.11.57.22a.24.24,0,0,1-.23.23h-2.51a21.87,21.87,0,0,0-2.62.12C126,56,126,56,126,55.88s.11-.23.34-.23A2,2,0,0,0,128,55a5.81,5.81,0,0,0,.57-3.09V50l.11-4.91a5.49,5.49,0,0,0-.46-2.4,2.1,2.1,0,0,0-1.48-.79c-.23,0-.46-.12-.46-.23s.12-.23.35-.23h4.33Z"/><path class="cls-1" d="M147.46,51.2a5,5,0,0,1,1.37-3.42,4.34,4.34,0,0,1,3.42-1.49A4.68,4.68,0,0,1,156.93,51a4.74,4.74,0,0,1-1.48,3.54A4.67,4.67,0,0,1,152,56a4.53,4.53,0,0,1-3.31-1.37A5,5,0,0,1,147.46,51.2Zm1.83,0a5.81,5.81,0,0,0,.91,3.19,2.74,2.74,0,0,0,2.17,1.26,2.41,2.41,0,0,0,2-1.14,5.33,5.33,0,0,0,.91-3.2,5.76,5.76,0,0,0-.91-3.08,2.63,2.63,0,0,0-2.28-1.36,2.26,2.26,0,0,0-2,1.25A5.18,5.18,0,0,0,149.29,51.2Z"/><path class="cls-1" d="M161.38,46.41a5,5,0,0,1,.34,2.17,5,5,0,0,1,1.49-1.6,3.46,3.46,0,0,1,1.82-.57,6.25,6.25,0,0,1,1.48.23,3.36,3.36,0,0,1,1.15,1,6.07,6.07,0,0,1,.34,2.4l-.12,3.76c0,.69,0,1.15.23,1.26a1.07,1.07,0,0,0,.69.46c.22.11.34.11.34.22s-.12.12-.23.12h-.11a5,5,0,0,0-1.49-.12,11.2,11.2,0,0,0-1.94.12c-.22,0-.45-.12-.45-.23s.11-.11.23-.23c.45-.11.68-.23.79-.23s.23-.22.23-.34a12.16,12.16,0,0,0,.12-1.6V51.09a5.74,5.74,0,0,0-.57-3.08,1.68,1.68,0,0,0-1.49-.8,2.45,2.45,0,0,0-2.16,1.37,9.3,9.3,0,0,0-.92,4.67,6.27,6.27,0,0,0,.23,1.94,1.11,1.11,0,0,0,1,.46.25.25,0,0,1,.23.23c0,.11-.12.11-.23.11h-3.54c-.34,0-.45-.11-.45-.23s.22-.22.57-.34a1.82,1.82,0,0,0,.68-.34,3.73,3.73,0,0,0,.23-1.71c0-.91.11-2.17.11-3.54a7.38,7.38,0,0,0-.23-2.39c-.22-.35-.45-.57-.79-.57s-.46-.12-.46-.23.11-.23.34-.23h2.51Z"/><path class="cls-1" d="M172.56,50.74v.92a4.06,4.06,0,0,0,.91,2.62,3,3,0,0,0,2.29,1.14,3.73,3.73,0,0,0,2.51-1c.22-.22.34-.34.45-.34s.23.12.23.34a2.73,2.73,0,0,1-1.48,1.26,5.27,5.27,0,0,1-2.29.57,3.92,3.92,0,0,1-3.08-1.37,5,5,0,0,1-1.25-3.31,5.2,5.2,0,0,1,1.37-3.65,4.37,4.37,0,0,1,3-1.48,3.7,3.7,0,0,1,2.74,1.14,3.6,3.6,0,0,1,1.26,2.62.42.42,0,0,1-.12.35c0,.11-.34.11-.79.11Zm0-.57c.91,0,1.94.12,2.85.12H176a2.34,2.34,0,0,0,1-.23.88.88,0,0,0,.34-.8,2.29,2.29,0,0,0-.68-1.6,2,2,0,0,0-1.49-.68,2.15,2.15,0,0,0-1.59.8C173,48.12,172.68,48.92,172.56,50.17Z"/><path class="cls-1" d="M186.25,54.28c.8-2.17,1.37-3.65,1.6-4.45a6.89,6.89,0,0,0,.34-1.94c0-.57-.34-.91-1.14-1-.23,0-.34-.12-.34-.23a.24.24,0,0,1,.23-.23h3.53c.23,0,.23.11.23.23s-.11.23-.34.23A2.08,2.08,0,0,0,189,48.12c-.34.68-.91,2.4-1.83,5A53.43,53.43,0,0,1,185,58.73a7.13,7.13,0,0,1-1.72,2.4,2.77,2.77,0,0,1-1.71.68,1.8,1.8,0,0,1-1.37-.46,1.38,1.38,0,0,1-.45-1,1.22,1.22,0,0,1,.34-.8,1,1,0,0,1,1.71.57c0,.45.23.57.57.57.57,0,1.14-.57,1.83-1.71a5.55,5.55,0,0,0,1-2.63,7.54,7.54,0,0,0-.79-2.62c-.46-1.25-1-2.62-1.72-4.11a9.23,9.23,0,0,0-1.25-2.51c-.23-.22-.46-.45-.69-.45s-.34-.12-.34-.23a.25.25,0,0,1,.23-.23h.23a6.24,6.24,0,0,0,1.48.11,9.15,9.15,0,0,0,2.17-.11h.34c.23,0,.23.11.23.23s-.11.23-.46.34c-.57.12-.91.46-.91.8C183.74,48.12,184.65,50.29,186.25,54.28Z"/><path class="cls-3" d="M55.4,47.78s9.7,2,11.07-2.4S63.39,40,63.39,40H61.45v7.42H59.39V40.25H57.57v-.8s7.07,0,7.76.11c3.87.46,5.81,7.42-.46,8.79a19.69,19.69,0,0,1-9.47-.57Z"/><path class="cls-3" d="M59.28,49.38v4.44a.9.9,0,0,1-.91.92h-1v.8h6v-.8H62a.83.83,0,0,1-.69-.8V49.38Z"/></svg>