<svg id="Layer_1" data-name="Layer 1" xmlns="http://www.w3.org/2000/svg" width="204.1" height="100.3" viewBox="0 0 204.1 100.3"><defs><style>.cls-1{fill:#2e3641;}.cls-2{fill:#f78c1e;}</style></defs><title>Logo-Qiwi</title><g id="layer1"><g id="g5493"><path id="path5489" class="cls-1" d="M100.71,54.1h2.09v4.66h1.51L107,54.1h2.28L106,59.58v0l3.44,6h-2.35l-2.78-5h-1.51v5h-2.09V54.08l0,0Zm13.42,3.07a4.38,4.38,0,0,1,4.55,4.32,4.53,4.53,0,1,1-4.55-4.32Zm6.19.19h2v6.48h2.59V57.36h2v6.48h2.59V57.36h2v8.25h-11V57.36Zm16.88-.19a3.6,3.6,0,0,1,3.68,3.89,4.74,4.74,0,0,1-.08.82h-5.66a2.34,2.34,0,0,0,2.46,2.2,4.07,4.07,0,0,0,2.35-.9l.82,1.45a5.15,5.15,0,0,1-3.31,1.2A4.22,4.22,0,0,1,133,61.51,4.06,4.06,0,0,1,137.2,57.17Zm4.63,6.7c1-.16,1.75-1,1.75-3.95V57.33h6v8.26h-2V59h-2v.92c0,3.6-.95,5.67-3.7,5.75v-1.8Zm13.63-6.7a3.6,3.6,0,0,1,3.67,3.89,3.93,3.93,0,0,1-.08.82h-5.66a2.35,2.35,0,0,0,2.46,2.2,4.08,4.08,0,0,0,2.36-.9l.82,1.45a5.19,5.19,0,0,1-3.31,1.2,4.22,4.22,0,0,1-4.44-4.32A4.06,4.06,0,0,1,155.46,57.17Zm5.37.19h2v3.17h1l2-3.17h2.28l-2.62,3.94v0l2.93,4.28h-2.38l-2.17-3.36h-1.08v3.36h-2V57.36ZM114.13,64a2.6,2.6,0,1,0-2.44-2.6A2.46,2.46,0,0,0,114.13,64Zm24.66-3.58a1.63,1.63,0,0,0-1.67-1.74,2,2,0,0,0-2,1.74Zm18.25,0a1.63,1.63,0,0,0-1.66-1.74,2,2,0,0,0-2,1.74Z"/><path id="path5491" class="cls-2" d="M129.53,29.07V48.55a.51.51,0,0,1-.51.53h-4a.51.51,0,0,1-.53-.51V29.07a.5.5,0,0,1,.5-.52h4a.5.5,0,0,1,.53.52Zm31-.52a.82.82,0,0,1,.53.23.52.52,0,0,1,.08.45l-6.56,19.53a.54.54,0,0,1-.5.34h-3.55a.48.48,0,0,1-.5-.34l-3.81-11.38-3.81,11.38a.54.54,0,0,1-.5.34h-3.55a.48.48,0,0,1-.5-.34l-6.56-19.53a.52.52,0,0,1,.08-.45.45.45,0,0,1,.42-.23h4.44a.53.53,0,0,1,.51.39l3.52,11.54,3.86-11.54a.54.54,0,0,1,.5-.34h3.07a.48.48,0,0,1,.5.34l3.87,11.54,3.51-11.54a.58.58,0,0,1,.51-.39Zm6.7,0a.57.57,0,0,1,.53.52V48.55a.52.52,0,0,1-.51.53h-4a.51.51,0,0,1-.53-.51V29.07a.5.5,0,0,1,.5-.52h4ZM122.17,48.42a.4.4,0,0,1-.32.66H117a.67.67,0,0,1-.51-.24l-.82-1a10.5,10.5,0,1,1,3.26-3.2l3.25,3.79ZM81.53,57.86c1,.4,1.4,1.88,1.46,2.54.16,1.19-.19,1.67-.59,1.67s-.92-.45-1.5-1.38a2.8,2.8,0,0,1-.51-2.51.88.88,0,0,1,1.14-.32Zm-5.87,4.37a2.92,2.92,0,0,1,1.93.82c1.19,1,1.53,2.17.93,3a2,2,0,0,1-1.59.69,2.85,2.85,0,0,1-1.83-.66,2.54,2.54,0,0,1-.69-3.31A1.52,1.52,0,0,1,75.66,62.23ZM62.16,73.37A26.47,26.47,0,1,1,85,60.45a.19.19,0,0,1-.32-.08c-.92-6.5-4.89-10.1-10.69-11.19-.5-.08-.58-.39.08-.45a27.43,27.43,0,0,1,5.59.11,17.1,17.1,0,0,0,.1-2A17.56,17.56,0,1,0,62.19,64.37H63a23.49,23.49,0,0,1-.34-4.74c0-1.08.26-1.24.74-.39a18.34,18.34,0,0,0,12.7,9.5C81.66,70,87.22,71.41,93.2,79c.53.66-.26,1.35-.9.82-6.09-5.4-11.64-7.17-16.7-7.17-5.68,0-9.55.72-13.44.72Zm50.35-29.29-2.11-2.6a.41.41,0,0,1,.32-.68h4.47a5.87,5.87,0,0,0,.34-2,5.67,5.67,0,1,0-5.66,6A5.28,5.28,0,0,0,112.51,44.08Z"/></g></g></svg>