<svg id="Layer_1" data-name="Layer 1" xmlns="http://www.w3.org/2000/svg" xmlns:xlink="http://www.w3.org/1999/xlink" width="204.1" height="100.3" viewBox="0 0 204.1 100.3"><defs><style>.cls-1{fill-rule:evenodd;fill:url(#linear-gradient);}</style><linearGradient id="linear-gradient" x1="-158.74" y1="315.61" x2="-158.46" y2="315.09" gradientTransform="matrix(226.77, 0, 0, -77.46, 36069.33, 24476.51)" gradientUnits="userSpaceOnUse"><stop offset="0" stop-color="#6b2060"/><stop offset="1" stop-color="#4c255b"/></linearGradient></defs><title>Logo-Skrill</title><g id="Page-1"><g id="skrill-logo-web-1-rgb"><path id="Fill-1" class="cls-1" d="M128.1,39.5a4.9,4.9,0,1,0-4.9-4.9,4.91,4.91,0,0,0,4.9,4.9ZM90.6,42.2a32,32,0,0,1-5.7,9.7v-20l-10.3,2V70H84.9V59c3,4.5,4.4,11.2,4.4,11.2h12.3c-1.2-5.1-6.5-14.4-6.5-14.4a43.7,43.7,0,0,0,7.2-13.6Zm27-.4c-9.2.3-13.9,4.4-13.9,12.6V70.1h10V57.3c0-4.9.6-7,6.5-7.2V41.9a12.84,12.84,0,0,0-2.6-.1ZM57.4,46.2c-1.3-.1-4.2-.3-4.2-2.9,0-3.2,4.2-3.2,5.8-3.2a33.28,33.28,0,0,1,8.9,1.6s1.4.5,2.6,1h.1V34h-.2a34.26,34.26,0,0,0-13-2.1c-11.2,0-15.2,6.5-15.2,12.1,0,3.2,1.4,10.8,14.2,11.7,1.1.1,4,.2,4,2.9,0,2.2-2.4,3.6-6.3,3.6A30.4,30.4,0,0,1,42.9,60v9a52.39,52.39,0,0,0,13.3,1.5c11,0,15.9-6.2,15.9-12.3,0-6.9-5.5-11.4-14.7-12Zm65.8,23.9h10V42.2h-10Zm28.6-36.4V70.1h10V31.9l-10,1.8Zm-14.5,0,9.9-1.8V70.1h-9.9V33.7Z"/></g></g></svg>