<svg xmlns="http://www.w3.org/2000/svg" width="68" height="68" viewBox="0 0 68 68"><defs><style>.a{fill:#ff4490;}</style></defs><g transform="translate(26.067 21.533)"><path class="a" d="M187.4,152a3.4,3.4,0,0,0-3.4,3.4h2.267a1.133,1.133,0,0,1,2.267,0H190.8A3.4,3.4,0,0,0,187.4,152Z" transform="translate(-184 -152)"/></g><g transform="translate(35.133 21.533)"><path class="a" d="M251.4,152a3.4,3.4,0,0,0-3.4,3.4h2.267a1.133,1.133,0,1,1,2.267,0H254.8A3.4,3.4,0,0,0,251.4,152Z" transform="translate(-248 -152)"/></g><g transform="translate(29.467 52.133)"><path class="a" d="M212.533,368a4.533,4.533,0,1,0,4.533,4.533A4.538,4.538,0,0,0,212.533,368Zm0,6.8a2.267,2.267,0,1,1,2.267-2.267A2.269,2.269,0,0,1,212.533,374.8Z" transform="translate(-208 -368)"/></g><path class="a" d="M61.2,65.733V51a17.019,17.019,0,0,0-17-17H42.966a13.646,13.646,0,0,0,1.142-1.133h1.225A5.673,5.673,0,0,0,51,27.2v-2a5.091,5.091,0,0,0-.014-8.481,16.988,16.988,0,0,0-33.973,0,5.1,5.1,0,0,0,2.82,9.344h.772A13.576,13.576,0,0,0,25.035,34H23.8a17.019,17.019,0,0,0-17,17V65.733H0V68H68V65.733ZM48.733,27.2a3.393,3.393,0,0,1-2.946,3.354,13.478,13.478,0,0,0,1.607-4.487h.772a4.92,4.92,0,0,0,.567-.058ZM51,20.967A2.837,2.837,0,0,1,48.167,23.8H47.6V18.133h.567A2.837,2.837,0,0,1,51,20.967ZM20.4,23.8h-.567a2.833,2.833,0,1,1,0-5.667H20.4Zm-.567-7.933a4.781,4.781,0,0,0-.512.052,14.718,14.718,0,0,1,29.358,0,4.781,4.781,0,0,0-.512-.052h-.772a13.582,13.582,0,0,0-26.79,0Zm25.5,2.238c-8.179-.288-13.6-3.632-13.6-6.772a1.133,1.133,0,1,0-2.267,0c0,2.832-2.929,5.179-6.734,5.6a11.332,11.332,0,0,1,22.6,1.176ZM22.667,23.8V19.2a10.473,10.473,0,0,0,8.042-4.4c2.371,3.142,7.912,5.353,14.625,5.578V23.8a11.263,11.263,0,0,1-2.288,6.8H34v2.267h6.771a11.326,11.326,0,0,1-18.1-9.067ZM30.5,36.926a13.189,13.189,0,0,0,7.006,0L34,43.933Zm1.669,8.407h-2l-4.533-9.067h2Zm8.2-9.067h2l-4.533,9.067h-2ZM12.467,51V65.733h-3.4V51a14.738,14.738,0,0,1,14.05-14.7l4.516,9.032h-9.5A5.673,5.673,0,0,0,12.467,51Zm40.8,14.733H14.733V51a3.4,3.4,0,0,1,3.4-3.4H49.867a3.4,3.4,0,0,1,3.4,3.4Zm5.667,0h-3.4V51a5.673,5.673,0,0,0-5.667-5.667h-9.5L44.883,36.3A14.738,14.738,0,0,1,58.933,51Z"/><g transform="translate(48.733 55.533)"><rect class="a" width="2.267" height="7.933"/></g><g transform="translate(48.733 51)"><rect class="a" width="2.267" height="2.267"/></g><g transform="translate(58.933 10.2)"><rect class="a" width="2.267" height="2.267"/></g><g transform="translate(58.933 14.733)"><rect class="a" width="2.267" height="2.267"/></g><g transform="translate(58.933 19.267)"><rect class="a" width="2.267" height="2.267"/></g><g transform="translate(6.8 23.8)"><rect class="a" width="2.267" height="2.267"/></g><g transform="translate(6.8 28.333)"><rect class="a" width="2.267" height="2.267"/></g><g transform="translate(6.8 32.867)"><rect class="a" width="2.267" height="2.267"/></g></svg>