<svg xmlns="http://www.w3.org/2000/svg" xmlns:xlink="http://www.w3.org/1999/xlink" width="97.801" height="155.259" viewBox="0 0 97.801 155.259">
  <defs>
    <linearGradient id="linear-gradient" x1="0.638" y1="-0.56" x2="0.289" y2="1.771" gradientUnits="objectBoundingBox">
      <stop offset="0.112" stop-color="#7e3dc8"/>
      <stop offset="1" stop-color="#5b38c0"/>
    </linearGradient>
    <linearGradient id="linear-gradient-2" x1="0.701" y1="-0.273" x2="0.285" y2="1.459" xlink:href="#linear-gradient"/>
    <linearGradient id="linear-gradient-3" x1="0.768" y1="-0.91" x2="-0.477" y2="5.54" xlink:href="#linear-gradient"/>
    <linearGradient id="linear-gradient-4" x1="0.705" y1="-0.545" x2="0.311" y2="1.639" xlink:href="#linear-gradient"/>
  </defs>
  <g id="Group_737" data-name="Group 737" transform="translate(0 0)">
    <g id="Group_712" data-name="Group 712" transform="translate(31.846 93.478)">
      <path id="Path_8340" data-name="Path 8340" d="M512.32,284.831l4.982-5.942,14.451,12.526-2.837,3.489s2.592,6.02.1,3.935Z" transform="translate(-512.32 -278.889)" fill="#e2ccc1"/>
      <g id="Group_706" data-name="Group 706" transform="translate(0.784 5.707)">
        <path id="Path_8341" data-name="Path 8341" d="M529.8,297.7c-.03.036-3.824-3.093-8.473-6.992s-8.391-7.089-8.36-7.124,3.824,3.092,8.473,6.992S529.83,297.661,529.8,297.7Z" transform="translate(-512.965 -283.581)" fill="#495668"/>
      </g>
      <g id="Group_707" data-name="Group 707" transform="translate(15.157 16.214)">
        <path id="Path_8342" data-name="Path 8342" d="M526.662,292.869a3.811,3.811,0,0,1-.954-.279,3.975,3.975,0,0,1-.927-.356,3.756,3.756,0,0,1,1.881.635Z" transform="translate(-524.781 -292.219)" fill="#495668"/>
      </g>
      <g id="Group_708" data-name="Group 708" transform="translate(14.8 15.368)">
        <path id="Path_8343" data-name="Path 8343" d="M526.338,292.288a30.493,30.493,0,0,1-1.851-.751,3.24,3.24,0,0,1,1.851.751Z" transform="translate(-524.487 -291.523)" fill="#495668"/>
      </g>
      <g id="Group_709" data-name="Group 709" transform="translate(2.286 3.837)">
        <path id="Path_8344" data-name="Path 8344" d="M517.565,287.81a5.351,5.351,0,0,0,.106-1.035,4.267,4.267,0,0,0-.854-2.309,9.352,9.352,0,0,0-1.8-1.757,7.621,7.621,0,0,1-.819-.665,5.394,5.394,0,0,1,.892.567,8.143,8.143,0,0,1,1.866,1.752,4.123,4.123,0,0,1,.836,2.411,2.654,2.654,0,0,1-.114.774A.765.765,0,0,1,517.565,287.81Z" transform="translate(-514.199 -282.043)" fill="#495668"/>
      </g>
      <g id="Group_710" data-name="Group 710" transform="translate(15.059 17.219)">
        <path id="Path_8345" data-name="Path 8345" d="M524.7,293.564a1.413,1.413,0,0,1,2.063-.134,2.865,2.865,0,0,0-1.05-.208A2.789,2.789,0,0,0,524.7,293.564Z" transform="translate(-524.7 -293.045)" fill="#495668"/>
      </g>
      <g id="Group_711" data-name="Group 711" transform="translate(7.946 10.572)">
        <path id="Path_8346" data-name="Path 8346" d="M522.24,290.356a13.6,13.6,0,0,1-1.748-1.319,13.428,13.428,0,0,1-1.638-1.455A14.087,14.087,0,0,1,520.6,288.9,13.832,13.832,0,0,1,522.24,290.356Z" transform="translate(-518.852 -287.581)" fill="#495668"/>
      </g>
    </g>
    <path id="Path_8347" data-name="Path 8347" d="M550.867,253.01s4.3-7.9,5.029-7.748,1.393,2.531-.145,5.009c0,0,9.281-3.256,9.49-1.738s-6.785,3.928-6.785,3.928,6.93-1.782,7.347-.444-5.745,3.331-5.745,3.331,6.3-1.67,5.93-.6S561.5,257.8,561.5,257.8s4.3-1.443,3.937-.377-8.231,6.831-8.231,6.831C555.032,265.441,550.867,253.01,550.867,253.01Z" transform="translate(-472.133 -192.688)" fill="#ebae8d"/>
    <path id="Path_8348" data-name="Path 8348" d="M526.784,235.691s5.206,29.609,10.538,27.92a191.742,191.742,0,0,0,21.9-8.572l6.356,11.377s-16.651,8.016-20.845,9.959-20.233,8.885-25.59-9.156c-5.375-18.1-4.935-30.571-4.935-30.571Z" transform="translate(-480.068 -194.759)" fill="url(#linear-gradient)"/>
    <path id="Path_8349" data-name="Path 8349" d="M521.346,207.317q-.042,5.286-.083,10.573a3.472,3.472,0,0,0,.493,2.225c.634.8,1.8.877,2.7,1.357a4.289,4.289,0,0,1,2.008,3.017,12.713,12.713,0,0,1-.01,3.732,5.637,5.637,0,0,1,2.7,9.731,9.849,9.849,0,0,1-4.976,2.012,36.648,36.648,0,0,1-11.619.165,9.978,9.978,0,0,1-4.878-1.759c-2.048-1.643-2.727-4.495-2.661-7.12.123-4.984,2.449-9.71,5.6-13.576s7.1-6.986,11.011-10.072" transform="translate(-482.054 -200.899)" fill="#f47d42"/>
    <path id="Path_8350" data-name="Path 8350" d="M507.658,203.292a21.237,21.237,0,0,0-6.555,12.391c-.3,2.008-.348,4.181-1.546,5.819-.769,1.052-1.928,1.753-2.792,2.73a8.283,8.283,0,0,0-1.254,7.879,9.249,9.249,0,0,0,5.087,5.865,6.636,6.636,0,0,0,7.358-1.523,7.99,7.99,0,0,0,1.643-5.584,40.175,40.175,0,0,0-.977-5.876,38.68,38.68,0,0,1,.406-16.3,9.052,9.052,0,0,0,.417-2.914,2.667,2.667,0,0,0-1.552-2.331" transform="translate(-484.21 -201.77)" fill="#f47d42"/>
    <path id="Path_8351" data-name="Path 8351" d="M488.365,256.348l.518,21.18s16.156,11.555,41.372-1.121l-5.323-20.4L523.758,232.2s-.392-7.606-2.856-8.153-23.13-.99-27.485,2.264c0,0-5.807,1.93-6.182,11.811A94.715,94.715,0,0,0,488.365,256.348Z" transform="translate(-485.915 -197.362)" fill="url(#linear-gradient-2)"/>
    <g id="Group_721" data-name="Group 721" transform="translate(17.574 1.128)">
      <g id="Group_718" data-name="Group 718">
        <path id="Path_8352" data-name="Path 8352" d="M522.432,204.833s1.141,20.856-5.438,21.185l-4.008.006v2.952a2.874,2.874,0,0,1-1.359,2.447c-1.806,1.118-5.048,2.526-7.435.2a4.956,4.956,0,0,1-1.384-3.952l.872-11.1a3.816,3.816,0,0,1-3-4.58c.9-4.9,5.582-1.575,5.582-1.575v-4.723s.286-2.862,6.441-2.719l6.155.142S522.419,203.115,522.432,204.833Z" transform="translate(-500.587 -202.968)" fill="#ebae8d"/>
        <g id="Group_713" data-name="Group 713" transform="translate(16.883 9.791)">
          <path id="Path_8353" data-name="Path 8353" d="M515.439,211.017a13.355,13.355,0,0,1,.271,3.378c0,.449,0,.876,0,1.317a1.953,1.953,0,0,1-.269,1.128.883.883,0,0,1-.707.388c-.2-.011-.282-.1-.27-.119s.108-.01.252-.05a.789.789,0,0,0,.466-.386,6.923,6.923,0,0,0,.088-2.271A13.292,13.292,0,0,1,515.439,211.017Z" transform="translate(-514.467 -211.017)" fill="#46365c"/>
        </g>
        <g id="Group_714" data-name="Group 714" transform="translate(13.242 9.958)">
          <path id="Path_8354" data-name="Path 8354" d="M511.655,211.154c.119-.006.236.328.258.747s-.056.763-.178.77-.235-.328-.258-.747S511.535,211.161,511.655,211.154Z" transform="translate(-511.474 -211.154)" fill="#46365c"/>
        </g>
        <g id="Group_715" data-name="Group 715" transform="translate(19.968 9.852)">
          <path id="Path_8355" data-name="Path 8355" d="M517.184,211.067c.12-.007.236.327.259.747s-.057.763-.178.77-.236-.328-.259-.747S517.064,211.073,517.184,211.067Z" transform="translate(-517.003 -211.067)" fill="#46365c"/>
        </g>
        <g id="Group_716" data-name="Group 716" transform="translate(8.935 20.719)" opacity="0.5">
          <path id="Path_8356" data-name="Path 8356" d="M511.385,222.261a6.4,6.4,0,0,1-3.428-2.26,10.967,10.967,0,0,0,.259,3.438,4.576,4.576,0,0,0,2.018,2.694c.344.2.924.456.924.456.026-.082.191-.788.2-.872a15.306,15.306,0,0,0,.1-3.379" transform="translate(-507.933 -220.001)" fill="#46365c"/>
        </g>
        <g id="Group_717" data-name="Group 717" transform="translate(2.205 8.246)">
          <path id="Path_8357" data-name="Path 8357" d="M503.64,213.874c-.016.035-.488-.113-.949-.754a1.564,1.564,0,0,1-.218-1.365,1.374,1.374,0,0,1,.507-.707,1.156,1.156,0,0,1,.944-.163,2.8,2.8,0,0,1,.995.535l-.315.258a3.476,3.476,0,0,0-1.3-1.489c-.427-.272-.729-.367-.714-.422s.341-.04.842.189a3.286,3.286,0,0,1,1.555,1.546l.349.721-.664-.463a2.684,2.684,0,0,0-.848-.45.814.814,0,0,0-.971.577,1.29,1.29,0,0,0,.1,1.077C503.285,213.557,503.689,213.816,503.64,213.874Z" transform="translate(-502.4 -209.747)" fill="#46365c"/>
        </g>
      </g>
      <g id="Group_719" data-name="Group 719" transform="translate(13.154 15.939)">
        <path id="Path_8358" data-name="Path 8358" d="M514.8,217.844c.017.052-.195.193-.6.259a2.546,2.546,0,0,1-2.65-1.39c-.174-.369-.179-.624-.125-.64.113-.05.454.872,1.427,1.379A5.774,5.774,0,0,0,514.8,217.844Z" transform="translate(-511.401 -216.071)" fill="#46365c"/>
      </g>
      <g id="Group_720" data-name="Group 720" transform="translate(12.394 15.822)">
        <path id="Path_8359" data-name="Path 8359" d="M512.284,216.148c-.022.12-.379.156-.746.347s-.613.445-.725.392.018-.525.529-.781S512.321,216.033,512.284,216.148Z" transform="translate(-510.776 -215.975)" fill="#46365c"/>
      </g>
    </g>
    <path id="Path_8360" data-name="Path 8360" d="M512.319,223.987s12.38-1.533,14.3,10.313l.1,4.716-11.553.671Z" transform="translate(-480.474 -197.306)" fill="url(#linear-gradient-3)"/>
    <path id="Path_8361" data-name="Path 8361" d="M507.933,275.822s33.4-36.527,49.37-28.77-5.141,32.249-17.525,39.474c-10.833,6.322-30.058,7.005-30.058,7.005Z" transform="translate(-481.423 -192.534)" fill="#6a82ce"/>
    <path id="Path_8362" data-name="Path 8362" d="M510.216,208.531a14.694,14.694,0,0,0,5.23,2.258,6.627,6.627,0,0,0,5.41-1.252,4.333,4.333,0,0,0,1.16-5.17,4.645,4.645,0,0,0-3.008-2.117,10.745,10.745,0,0,0-3.765-.088,18.928,18.928,0,0,1-4.943.252,8.505,8.505,0,0,0-2.843-.3,3.644,3.644,0,0,0-2.571,2.551,10.743,10.743,0,0,0-.306,3.766c.029.8.169,1.759.906,2.059a1.91,1.91,0,0,0,1.223-.04,10.075,10.075,0,0,0,3.656-1.9" transform="translate(-482.155 -202.04)" fill="#f47d42"/>
    <path id="Path_8363" data-name="Path 8363" d="M543.806,252.371c-.406.27-29.1,35.6-29.1,35.6l16.106,10.963,20.5-24.84Z" transform="translate(-479.957 -191.149)" fill="#6a82ce"/>
    <g id="Group_722" data-name="Group 722" transform="translate(35.161 55.743)">
      <path id="Path_8364" data-name="Path 8364" d="M553.025,247.871c.012.051-.771.2-2.095.724a18.743,18.743,0,0,0-5.06,3.217,48.4,48.4,0,0,0-6.052,6.584l-6.885,8.589c-4.9,6.056-9.331,11.536-12.578,15.551-1.6,1.946-2.91,3.535-3.851,4.681l-1.064,1.258a2.794,2.794,0,0,1-.4.421,2.958,2.958,0,0,1,.326-.474l1-1.311,3.743-4.768c3.222-4.035,7.621-9.543,12.48-15.629,2.451-3.037,4.783-5.931,6.91-8.569a46.727,46.727,0,0,1,6.166-6.567,17.969,17.969,0,0,1,5.2-3.139,12.34,12.34,0,0,1,1.589-.463A2.844,2.844,0,0,1,553.025,247.871Z" transform="translate(-515.045 -247.867)" fill="#30273f"/>
    </g>
    <g id="Group_729" data-name="Group 729" transform="translate(60.082 147.503)">
      <path id="Path_8365" data-name="Path 8365" d="M535.533,331.06V323.3l19.12.313.069,4.5s5.854,2.947,2.609,2.947Z" transform="translate(-535.533 -323.304)" fill="#e2ccc1"/>
      <g id="Group_723" data-name="Group 723" transform="translate(0.45 6.983)">
        <path id="Path_8366" data-name="Path 8366" d="M557.872,329.133c0,.049-4.919.086-10.984.086s-10.985-.038-10.985-.086,4.917-.088,10.985-.088S557.872,329.084,557.872,329.133Z" transform="translate(-535.903 -329.045)" fill="#495668"/>
      </g>
      <g id="Group_724" data-name="Group 724" transform="translate(18.223 5.163)">
        <path id="Path_8367" data-name="Path 8367" d="M552.365,327.561a3.98,3.98,0,0,1-.91.4,4.054,4.054,0,0,1-.94.325,3.7,3.7,0,0,1,1.85-.723Z" transform="translate(-550.514 -327.549)" fill="#495668"/>
      </g>
      <g id="Group_725" data-name="Group 725" transform="translate(17.404 4.844)">
        <path id="Path_8368" data-name="Path 8368" d="M551.745,327.305a4.961,4.961,0,0,1-.946.324,4.8,4.8,0,0,1-.956.292,3.226,3.226,0,0,1,1.9-.615Z" transform="translate(-549.841 -327.286)" fill="#495668"/>
      </g>
      <g id="Group_726" data-name="Group 726" transform="translate(0.399 4.496)">
        <path id="Path_8369" data-name="Path 8369" d="M542.146,329.433a5.537,5.537,0,0,0-.585-.859,4.267,4.267,0,0,0-2.137-1.221,9.363,9.363,0,0,0-2.507-.191,7.3,7.3,0,0,1-1.056.016,5.417,5.417,0,0,1,1.049-.139,8.2,8.2,0,0,1,2.556.143,4.129,4.129,0,0,1,2.19,1.31,2.631,2.631,0,0,1,.409.667A.82.82,0,0,1,542.146,329.433Z" transform="translate(-535.861 -327)" fill="#495668"/>
      </g>
      <g id="Group_727" data-name="Group 727" transform="translate(19.1 5.661)">
        <path id="Path_8370" data-name="Path 8370" d="M551.256,329.411a1.415,1.415,0,0,1,1.495-1.428,2.081,2.081,0,0,0-1.495,1.428Z" transform="translate(-551.235 -327.958)" fill="#495668"/>
      </g>
      <g id="Group_728" data-name="Group 728" transform="translate(9.066 6.082)">
        <path id="Path_8371" data-name="Path 8371" d="M547.361,328.37a27.368,27.368,0,0,1-4.375.051,13.977,13.977,0,0,1,2.188-.113A13.6,13.6,0,0,1,547.361,328.37Z" transform="translate(-542.986 -328.304)" fill="#495668"/>
      </g>
    </g>
    <path id="Path_8372" data-name="Path 8372" d="M488.682,267.945s-3.535,11.187,6.876,16.606,43.207,1.612,44.847,6.362c2.989,8.657,5.129,47.467,5.129,47.467l19.628-1.2s-5.834-59.729-10.209-63c-7.208-5.389-33.735-6.236-33.735-6.236Z" transform="translate(-485.714 -187.779)" fill="#7891f8"/>
    <g id="Group_730" data-name="Group 730" transform="translate(38.907 35.737)">
      <path id="Path_8373" data-name="Path 8373" d="M520.408,260.836a6.011,6.011,0,0,1-.27-1.132c-.147-.732-.335-1.8-.54-3.121-.411-2.643-.866-6.314-1.154-10.388s-.347-7.774-.308-10.449c.02-1.338.054-2.419.1-3.166a6.135,6.135,0,0,1,.109-1.159,5.857,5.857,0,0,1,.061,1.163c.011.831.024,1.891.04,3.163.04,2.669.151,6.356.435,10.418s.692,7.728,1.024,10.376c.162,1.26.3,2.312.4,3.137A5.76,5.76,0,0,1,520.408,260.836Z" transform="translate(-518.125 -231.42)" fill="#3a274c"/>
    </g>
    <g id="Group_732" data-name="Group 732" transform="translate(40.493 37.478)">
      <path id="Path_8374" data-name="Path 8374" d="M519.464,258.786l-.034-1.551L542.3,254.06l6.12-21.208,28.315.023-9.54,24.445Z" transform="translate(-519.429 -232.852)" fill="#918f8e"/>
      <g id="Group_731" data-name="Group 731" transform="translate(37.42 9.012)">
        <path id="Path_8375" data-name="Path 8375" d="M554.56,242.712a1.876,1.876,0,1,1-1.916-1.834A1.875,1.875,0,0,1,554.56,242.712Z" transform="translate(-550.059 -240.127)" fill="#e2ccc1"/>
        <path id="Path_8376" data-name="Path 8376" d="M555.444,242.829a2.626,2.626,0,1,1-2.683-2.568A2.626,2.626,0,0,1,555.444,242.829Z" transform="translate(-550.192 -240.26)" fill="#e2ccc1" opacity="0.41"/>
      </g>
    </g>
    <path id="Path_8377" data-name="Path 8377" d="M520.308,255.992s6.059-6.645,6.731-6.328.748,2.792-1.334,4.83c0,0,9.788-.951,9.631.573s-7.527,2.2-7.527,2.2,7.155-.079,7.241,1.32-6.373,1.865-6.373,1.865,6.511-.122,5.9.826-5.084,1.906-5.084,1.906,4.524-.376,3.914.572-9.624,4.672-9.624,4.672C521.389,269.057,520.308,255.992,520.308,255.992Z" transform="translate(-478.746 -191.738)" fill="#ebae8d"/>
    <path id="Path_8378" data-name="Path 8378" d="M501.227,233.478s-2,30,3.581,29.626a192.026,192.026,0,0,0,23.313-3.1l3.462,12.563s-18.083,3.816-22.619,4.7-21.767,3.8-22.671-14.991c-.907-18.86,2.491-30.868,2.491-30.868Z" transform="translate(-486.139 -195.685)" fill="url(#linear-gradient-4)"/>
    <g id="Group_733" data-name="Group 733" transform="translate(3.556 31.14)">
      <path id="Path_8379" data-name="Path 8379" d="M525.174,261.1a3.715,3.715,0,0,1-.673.075c-.483.035-1.126.079-1.935.136-1.726.1-4.148.24-7.122.414l-10.568.552a4.059,4.059,0,0,1-3.017-.831,4.487,4.487,0,0,1-1.182-3.045c-.075-2.2.016-4.419.018-6.724.055-4.594.107-8.97.154-12.956a21,21,0,0,0-.4-5.571,6.857,6.857,0,0,0-2.581-3.945,6.679,6.679,0,0,0-3.693-1.317,6.92,6.92,0,0,0-2.946.549,8.46,8.46,0,0,0-2.169,1.4,3.081,3.081,0,0,1,.466-.494,6.472,6.472,0,0,1,1.635-1.066,6.792,6.792,0,0,1,6.89.674,7.162,7.162,0,0,1,2.749,4.1,21.218,21.218,0,0,1,.45,5.667c-.037,3.987-.078,8.363-.12,12.957,0,2.289-.095,4.559-.029,6.688a4.106,4.106,0,0,0,1.039,2.771,3.68,3.68,0,0,0,2.723.735l10.566-.46,7.127-.275,1.94-.052A3.687,3.687,0,0,1,525.174,261.1Z" transform="translate(-489.063 -227.641)" fill="#3a274c"/>
    </g>
    <g id="Group_734" data-name="Group 734" transform="translate(37.679 64.835)">
      <path id="Path_8380" data-name="Path 8380" d="M520.1,268.4a8.256,8.256,0,0,1-.719-1.836c-.382-1.154-.857-2.77-1.269-4.581s-.677-3.474-.832-4.681a8.353,8.353,0,0,1-.143-1.966c.135-.018.592,2.948,1.4,6.55S520.231,268.363,520.1,268.4Z" transform="translate(-517.116 -255.342)" fill="#3a274c"/>
    </g>
    <g id="Group_735" data-name="Group 735" transform="translate(10.119 63.451)">
      <path id="Path_8381" data-name="Path 8381" d="M500.095,254.214a25.741,25.741,0,0,1-5.634,3.627,25.82,25.82,0,0,1,5.634-3.627Z" transform="translate(-494.458 -254.204)" fill="#3a274c"/>
    </g>
    <g id="Group_736" data-name="Group 736" transform="translate(11.377 62.916)">
      <path id="Path_8382" data-name="Path 8382" d="M499.687,253.768A28.392,28.392,0,0,1,495.5,259.4a28.293,28.293,0,0,1,4.187-5.636Z" transform="translate(-495.493 -253.764)" fill="#3a274c"/>
    </g>
    <path id="Path_8383" data-name="Path 8383" d="M510.245,234.269c-.354,1.332-.817,2.683-1.041,4.043a.369.369,0,0,0,.71.2c.457-1.3.7-2.708,1.034-4.046a.365.365,0,0,0-.7-.193Z" transform="translate(-481.15 -195.123)" fill="#e0d3ef"/>
    <path id="Path_8384" data-name="Path 8384" d="M503.134,240.732a17.169,17.169,0,0,0,.792,1.769c.247.518.422,1.2.921,1.514a.281.281,0,0,0,.42-.241,2.86,2.86,0,0,0-.624-1.421,19.088,19.088,0,0,0-1.091-1.8c-.142-.193-.507-.088-.417.175Z" transform="translate(-482.465 -193.727)" fill="#e0d3ef"/>
    <path id="Path_8385" data-name="Path 8385" d="M501.922,233.9a9.6,9.6,0,0,1,.652,1.485,6.5,6.5,0,0,0,.463,1.288.335.335,0,0,0,.62-.168,5.641,5.641,0,0,0-1.308-2.857.249.249,0,0,0-.428.252Z" transform="translate(-482.732 -195.226)" fill="#e0d3ef"/>
    <path id="Path_8386" data-name="Path 8386" d="M506.9,231.132c-.01,1.069-.134,2.136-.134,3.208a.371.371,0,0,0,.741,0c0-1.072-.123-2.138-.134-3.208a.237.237,0,0,0-.473,0Z" transform="translate(-481.676 -195.795)" fill="#e0d3ef"/>
    <path id="Path_8387" data-name="Path 8387" d="M514.362,235.633c-.032.86-.154,1.755-.1,2.613a.4.4,0,0,0,.8,0,26.064,26.064,0,0,0-.1-2.613.3.3,0,0,0-.6,0Z" transform="translate(-480.057 -194.834)" fill="#e0d3ef"/>
    <path id="Path_8388" data-name="Path 8388" d="M509.884,242.1a23.13,23.13,0,0,0,2.685,1.265.392.392,0,0,0,.3-.714,22.418,22.418,0,0,0-2.634-1.152c-.405-.185-.759.415-.352.6Z" transform="translate(-481.04 -193.509)" fill="#e0d3ef"/>
    <path id="Path_8389" data-name="Path 8389" d="M516.093,242.57c-.225.555-.462,1.1-.7,1.652a8.118,8.118,0,0,0-.574,1.41.416.416,0,0,0,.756.319,7.9,7.9,0,0,0,.539-1.424c.206-.595.412-1.187.635-1.776.157-.414-.493-.578-.653-.18Z" transform="translate(-479.936 -193.319)" fill="#e0d3ef"/>
    <path id="Path_8390" data-name="Path 8390" d="M507.633,248.2c.488.838.9,1.748,1.445,2.551a.436.436,0,0,0,.753-.44c-.476-.847-1.108-1.623-1.642-2.436a.322.322,0,0,0-.556.326Z" transform="translate(-481.499 -192.155)" fill="#e0d3ef"/>
    <path id="Path_8391" data-name="Path 8391" d="M515.39,253.2a11.736,11.736,0,0,1,.228-1.77c.128-.612.4-1.19.511-1.8.085-.448-.584-.808-.787-.332a10.045,10.045,0,0,0-.48,3.9.265.265,0,0,0,.529,0Z" transform="translate(-479.925 -191.862)" fill="#e0d3ef"/>
    <path id="Path_8392" data-name="Path 8392" d="M511.924,249.493c.161,1.3.147,2.621.343,3.919.076.5.938.383.884-.12-.133-1.277-.473-2.526-.64-3.8-.049-.369-.634-.377-.587,0Z" transform="translate(-480.56 -191.833)" fill="#e0d3ef"/>
    <path id="Path_8393" data-name="Path 8393" d="M502.584,253.857c.55.3,1.09.6,1.629.918a3.6,3.6,0,0,0,1.621.752.286.286,0,0,0,.246-.428,3,3,0,0,0-1.3-.836c-.63-.311-1.257-.624-1.876-.957-.364-.195-.686.356-.324.551Z" transform="translate(-482.615 -190.956)" fill="#e0d3ef"/>
    <path id="Path_8394" data-name="Path 8394" d="M500.838,250.816a8.554,8.554,0,0,1,.973-1.62c.375-.518.87-.929,1.242-1.444.331-.459-.35-.862-.726-.56a8.373,8.373,0,0,0-2,3.406c-.123.294.391.511.516.218Z" transform="translate(-483.074 -192.293)" fill="#e0d3ef"/>
    <path id="Path_8395" data-name="Path 8395" d="M492.573,243.247a18.187,18.187,0,0,0,2.29,2.339c.258.185.628-.182.44-.442a18.18,18.18,0,0,0-2.339-2.289.277.277,0,0,0-.392.392Z" transform="translate(-484.764 -193.226)" fill="#e0d3ef"/>
    <path id="Path_8396" data-name="Path 8396" d="M496.31,237.574c-.1,1.106-.36,2.211-.375,3.326-.006.484.671.451.73,0,.144-1.1.044-2.224.1-3.326.015-.3-.431-.288-.456,0Z" transform="translate(-484.02 -194.399)" fill="#e0d3ef"/>
    <path id="Path_8397" data-name="Path 8397" d="M490.664,237.327a28.877,28.877,0,0,0,2.051,2.1.345.345,0,0,0,.488-.488,28.593,28.593,0,0,0-2.225-1.932c-.214-.186-.517.107-.314.315Z" transform="translate(-485.175 -194.486)" fill="#e0d3ef"/>
    <path id="Path_8398" data-name="Path 8398" d="M489.709,234.919c.811-.356,1.665-.647,2.453-1.055.4-.2.047-.793-.349-.595-.787.394-1.519.907-2.281,1.349-.2.116-.024.388.176.3Z" transform="translate(-485.424 -195.292)" fill="#e0d3ef"/>
    <path id="Path_8399" data-name="Path 8399" d="M492.426,230.313a39.972,39.972,0,0,1,2.164,3.973c.21.393.873.123.724-.3a14.834,14.834,0,0,0-2.435-4.018c-.2-.258-.637.082-.453.349Z" transform="translate(-484.789 -196.018)" fill="#e0d3ef"/>
    <path id="Path_8400" data-name="Path 8400" d="M499.117,226.845c.405.333.811.667,1.214,1a2.821,2.821,0,0,0,1.044.729.274.274,0,0,0,.307-.4,2.791,2.791,0,0,0-.962-.833c-.427-.3-.847-.619-1.271-.929-.251-.184-.569.234-.331.431Z" transform="translate(-483.349 -196.776)" fill="#e0d3ef"/>
    <path id="Path_8401" data-name="Path 8401" d="M500.343,231.8c.715-.356,1.454-.66,2.17-1.012.418-.2.051-.838-.365-.625-.708.363-1.392.77-2.1,1.125-.342.172-.041.682.3.512Z" transform="translate(-483.163 -195.965)" fill="#e0d3ef"/>
    <path id="Path_8402" data-name="Path 8402" d="M510.12,227.948c.746,1.3,1.357,2.711,2.159,3.976a.388.388,0,0,0,.67-.392c-.7-1.326-1.611-2.558-2.366-3.855a.268.268,0,0,0-.463.27Z" transform="translate(-480.959 -196.521)" fill="#e0d3ef"/>
    <path id="Path_8403" data-name="Path 8403" d="M516.97,227.241a7.988,7.988,0,0,1-.44,1.941,16,16,0,0,0-.727,1.664.351.351,0,0,0,.581.339c.927-.9,1.118-2.725,1.231-3.945.039-.414-.607-.41-.645,0Z" transform="translate(-479.723 -196.654)" fill="#e0d3ef"/>
    <path id="Path_8404" data-name="Path 8404" d="M513.957,227.048a3.9,3.9,0,0,0,1.387,0,.306.306,0,0,0,0-.588,3.93,3.93,0,0,0-1.387-.013.3.3,0,0,0,0,.6Z" transform="translate(-480.183 -196.773)" fill="#e0d3ef"/>
    <path id="Path_8405" data-name="Path 8405" d="M520.719,230.711c.2.462.379.927.552,1.4a4.419,4.419,0,0,0,.47,1.123.339.339,0,0,0,.615-.26,4.393,4.393,0,0,0-.482-1.117c-.23-.474-.448-.951-.654-1.437-.146-.344-.647-.047-.5.293Z" transform="translate(-478.663 -195.933)" fill="#e0d3ef"/>
    <path id="Path_8406" data-name="Path 8406" d="M522.661,237.108a19.3,19.3,0,0,0-.909,3.062c-.052.4.606.57.765.207a19.312,19.312,0,0,0,.813-3.084.347.347,0,0,0-.669-.185Z" transform="translate(-478.434 -194.505)" fill="#e0d3ef"/>
    <path id="Path_8407" data-name="Path 8407" d="M519.436,236.294a17.366,17.366,0,0,0,.518,2.871c.139.355.723.338.706-.095a17.794,17.794,0,0,0-.68-2.925c-.076-.358-.617-.206-.544.15Z" transform="translate(-478.936 -194.705)" fill="#e0d3ef"/>
    <path id="Path_8408" data-name="Path 8408" d="M520.245,245.35c.434.751.8,1.546,1.254,2.286a.354.354,0,0,0,.611-.356c-.417-.759-.923-1.475-1.359-2.226a.293.293,0,0,0-.506.3Z" transform="translate(-478.768 -192.764)" fill="#e0d3ef"/>
    <path id="Path_8409" data-name="Path 8409" d="M524.3,242.961a14.423,14.423,0,0,0-.035,3.188.381.381,0,0,0,.731,0,14.423,14.423,0,0,0-.035-3.188.33.33,0,0,0-.66,0Z" transform="translate(-477.911 -193.255)" fill="#e0d3ef"/>
    <path id="Path_8410" data-name="Path 8410" d="M523.377,248.043a6.627,6.627,0,0,0,.01,1.522.367.367,0,0,0,.7,0,6.638,6.638,0,0,0,.01-1.522.362.362,0,0,0-.724,0Z" transform="translate(-478.09 -192.162)" fill="#e0d3ef"/>
    <path id="Path_8411" data-name="Path 8411" d="M497.053,262.9a15.184,15.184,0,0,0,2.435,2.076c.266.142.667-.168.452-.452a15.5,15.5,0,0,0-2.432-2.08c-.315-.266-.772.187-.456.456Z" transform="translate(-483.801 -188.988)" fill="#e0d3ef"/>
    <path id="Path_8412" data-name="Path 8412" d="M493.57,267.16c.842.352,1.663.751,2.5,1.106a.369.369,0,1,0,.286-.676c-.873-.345-1.763-.646-2.632-.995-.354-.142-.5.423-.157.566Z" transform="translate(-484.574 -188.077)" fill="#e0d3ef"/>
    <path id="Path_8413" data-name="Path 8413" d="M502.324,267.034l1.326-.916a7.117,7.117,0,0,0,1.371-1.025.367.367,0,0,0-.443-.573,6.783,6.783,0,0,0-1.317.934l-1.286.983c-.344.264-.026.855.349.6Z" transform="translate(-482.745 -188.529)" fill="#e0d3ef"/>
    <path id="Path_8414" data-name="Path 8414" d="M501.5,259.912a15.535,15.535,0,0,0,1.986,1.362c.352.167.777-.286.442-.572a16.1,16.1,0,0,0-2.126-1.309c-.333-.2-.617.3-.3.518Z" transform="translate(-482.844 -189.64)" fill="#e0d3ef"/>
    <path id="Path_8415" data-name="Path 8415" d="M508.5,259.452a5.859,5.859,0,0,0,3.227-.817.42.42,0,0,0-.422-.725,6.807,6.807,0,0,1-2.805.876.333.333,0,0,0,0,.667Z" transform="translate(-481.372 -189.961)" fill="#e0d3ef"/>
    <path id="Path_8416" data-name="Path 8416" d="M508.2,265.491c.825-.427,1.726-.779,2.512-1.271a.4.4,0,0,0-.4-.684c-.851.366-1.653.9-2.477,1.334-.41.215-.047.833.364.62Z" transform="translate(-481.483 -188.742)" fill="#e0d3ef"/>
    <path id="Path_8417" data-name="Path 8417" d="M513.092,261.583q.308.764.618,1.528a2.04,2.04,0,0,0,.615,1.011c.191.146.424-.057.438-.251a1.949,1.949,0,0,0-.35-1.056l-.742-1.476c-.159-.319-.713-.09-.579.243Z" transform="translate(-480.312 -189.242)" fill="#e0d3ef"/>
    <path id="Path_8418" data-name="Path 8418" d="M491.828,260.489c-.213.46-.4.917-.572,1.394a4.707,4.707,0,0,0-.412,1.472.385.385,0,0,0,.713.192,4.038,4.038,0,0,0,.414-1.221c.137-.543.254-1.079.342-1.632.044-.271-.348-.5-.484-.2Z" transform="translate(-485.121 -189.423)" fill="#e0d3ef"/>
    <path id="Path_8419" data-name="Path 8419" d="M487.809,259.765a25.73,25.73,0,0,0,2.593.9.391.391,0,0,0,.207-.753,25.319,25.319,0,0,0-2.631-.76.317.317,0,0,0-.169.611Z" transform="translate(-485.825 -189.685)" fill="#e0d3ef"/>
    <path id="Path_8420" data-name="Path 8420" d="M495.986,250.413a16.96,16.96,0,0,0-.985,2.452.329.329,0,0,0,.6.252,16.809,16.809,0,0,0,.98-2.453c.128-.344-.449-.589-.594-.251Z" transform="translate(-484.224 -191.608)" fill="#e0d3ef"/>
    <path id="Path_8421" data-name="Path 8421" d="M488.648,250.1a14.009,14.009,0,0,0,2.576,3.923c.281.254.782-.082.546-.421-.412-.6-.943-1.109-1.387-1.683a14.407,14.407,0,0,1-1.317-2.064c-.146-.276-.563-.032-.418.246Z" transform="translate(-485.603 -191.721)" fill="#e0d3ef"/>
    <path id="Path_8422" data-name="Path 8422" d="M492.476,248.42a34.32,34.32,0,0,0-2.452-3.242c-.338-.347-.944.106-.676.521a34.4,34.4,0,0,0,2.619,3.115c.234.282.734-.1.51-.394Z" transform="translate(-485.459 -192.733)" fill="#e0d3ef"/>
  </g>
</svg>
