<svg xmlns="http://www.w3.org/2000/svg" xmlns:xlink="http://www.w3.org/1999/xlink" width="70" height="70" viewBox="-2 0 80 80">
  <defs>
    <clipPath id="clip-path">
      <rect id="Rectangle_182" data-name="Rectangle 182" width="70" height="70" fill="none"/>
    </clipPath>
    <linearGradient id="linear-gradient" x1="-3.677" y1="-4.089" x2="-3.581" y2="-3.603" gradientUnits="objectBoundingBox">
      <stop offset="0.001" stop-color="#fadc4e"/>
      <stop offset="1" stop-color="#f5d132"/>
    </linearGradient>
    <linearGradient id="linear-gradient-2" x1="-4.798" y1="-5.881" x2="-5.164" y2="-4.966" gradientUnits="objectBoundingBox">
      <stop offset="0" stop-color="#dc9e2e"/>
      <stop offset="0.997" stop-color="#dbaa2e"/>
    </linearGradient>
    <linearGradient id="linear-gradient-3" x1="-10.647" y1="-17.955" x2="-9.909" y2="-17.955" xlink:href="#linear-gradient"/>
  </defs>
  <g id="Group_871" data-name="Group 871" transform="translate(0 0)" clip-path="url(#clip-path)">
    <g id="Group_870" data-name="Group 870" transform="translate(8.346 12.215)">
      <g id="Group_860" data-name="Group 860">
        
        <path id="Path_8553" data-name="Path 8553" d="M452.747,276.971a27.7,27.7,0,1,1-5.642-38.714A27.667,27.667,0,0,1,452.747,276.971Z" transform="translate(-401.066 -232.369)" fill="url(#linear-gradient)"/>
        <path id="Path_8554" data-name="Path 8554" d="M447.411,272.969a21.106,21.106,0,1,1-4.3-29.5A21.081,21.081,0,0,1,447.411,272.969Z" transform="translate(-401.01 -232.312)" fill="url(#linear-gradient-2)"/>
        <g id="Group_857" data-name="Group 857" transform="translate(12.198 6.208)">
          <path id="Path_8555" data-name="Path 8555" d="M447.771,272.443a12.53,12.53,0,0,1,1.073-2.367,22.435,22.435,0,0,0,1.923-6.639,21.6,21.6,0,0,0,.057-4.745,21.091,21.091,0,0,0-1.241-5.277,20.708,20.708,0,0,0-2.885-5.228,20.592,20.592,0,0,0-2.1-2.364,20.7,20.7,0,0,0-5.322-3.724,20.692,20.692,0,0,0-2.941-1.163,20.684,20.684,0,0,0-5.9-.919,21.159,21.159,0,0,0-5.383.645,21.619,21.619,0,0,0-4.438,1.681,22.385,22.385,0,0,0-5.575,4.082c-1.168,1.167-1.75,1.893-1.855,1.819A6.191,6.191,0,0,1,414.571,246a19.515,19.515,0,0,1,5.494-4.665,21.148,21.148,0,0,1,10.366-2.81,20.383,20.383,0,0,1,3.144.2,20.607,20.607,0,0,1,3.217.695,21.588,21.588,0,0,1,3.184,1.232,21.7,21.7,0,0,1,5.739,4.017,21.557,21.557,0,0,1,2.248,2.569,21.492,21.492,0,0,1,3.019,5.67,21.139,21.139,0,0,1,.914,10.7,19.513,19.513,0,0,1-2.5,6.762C448.509,271.824,447.847,272.5,447.771,272.443Z" transform="translate(-413.175 -238.527)" fill="#c18d25"/>
        </g>
        <g id="Group_858" data-name="Group 858" transform="translate(7.311)">
          <path id="Path_8556" data-name="Path 8556" d="M452.7,276.974a3.632,3.632,0,0,1,.443-.766c.159-.241.353-.541.562-.907s.473-.773.722-1.26a28.193,28.193,0,0,0,3.031-8.671,28.336,28.336,0,0,0,.358-6.331,27.9,27.9,0,0,0-1.379-7.134,27.449,27.449,0,0,0-3.617-7.156,27.35,27.35,0,0,0-2.713-3.272,27.486,27.486,0,0,0-6.994-5.228,27.328,27.328,0,0,0-3.908-1.677,27.5,27.5,0,0,0-7.888-1.443,27.9,27.9,0,0,0-7.233.7,28.206,28.206,0,0,0-5.971,2.137,27.247,27.247,0,0,0-4.463,2.753,27.761,27.761,0,0,0-2.994,2.608c-.4.377-.718.74-1,1.049s-.523.575-.71.8a3.8,3.8,0,0,1-.608.642,3.541,3.541,0,0,1,.481-.743c.166-.238.38-.528.655-.851s.577-.711.96-1.11a25.227,25.227,0,0,1,2.943-2.747,26.466,26.466,0,0,1,4.482-2.907,27.657,27.657,0,0,1,13.485-3.069,27.886,27.886,0,0,1,8.12,1.439,27.715,27.715,0,0,1,4.027,1.715,27.981,27.981,0,0,1,7.2,5.38,27.925,27.925,0,0,1,2.785,3.376,27.845,27.845,0,0,1,3.677,7.379,27.653,27.653,0,0,1,.875,13.8A26.509,26.509,0,0,1,456.5,270.6a25.272,25.272,0,0,1-1.8,3.6c-.273.48-.556.882-.793,1.235a10.69,10.69,0,0,1-.63.868A3.658,3.658,0,0,1,452.7,276.974Z" transform="translate(-408.33 -232.372)" fill="#fce9b9"/>
        </g>
        <path id="Path_8557" data-name="Path 8557" d="M434.6,246.285" transform="translate(-400.791 -232.251)" fill="none" stroke="#fce9b9" stroke-miterlimit="10" stroke-width="0.25"/>
        <g id="Group_859" data-name="Group 859" transform="translate(10.744 37.473)">
          <path id="Path_8558" data-name="Path 8558" d="M429.858,281.4c-.009.053-.331.058-.9,0a21.569,21.569,0,0,1-2.406-.393,26.07,26.07,0,0,1-3.483-1.01c-.641-.239-1.31-.505-1.984-.829a23.107,23.107,0,0,1-2.041-1.089,21.649,21.649,0,0,1-1.912-1.31,19.451,19.451,0,0,1-1.633-1.414,18.516,18.516,0,0,1-1.326-1.433,16.442,16.442,0,0,1-1.013-1.367,13.636,13.636,0,0,1-.716-1.2,10.393,10.393,0,0,1-.449-.954,4.788,4.788,0,0,1-.221-.629c-.04-.147-.048-.229-.022-.241s.084.049.17.174.2.316.352.554.333.535.558.866.485.705.793,1.1.66.82,1.053,1.26.84.886,1.331,1.33,1.022.9,1.6,1.325,1.2.85,1.85,1.249a30.586,30.586,0,0,0,7.231,3.065c.973.283,1.77.489,2.322.638S429.866,281.341,429.858,281.4Z" transform="translate(-411.734 -269.523)" fill="#fce9b9"/>
        </g>
      </g>
      <g id="Group_861" data-name="Group 861" transform="translate(4.701 2.039)" opacity="0.64">
        <path id="Path_8559" data-name="Path 8559" d="M407.061,262.607c-.107.03-.251-.092-.43-.366a4.951,4.951,0,0,1-.528-1.292,10.289,10.289,0,0,1-.337-2.167,19.119,19.119,0,0,1,.073-2.859c.047-.521.113-1.061.187-1.617s.156-1.131.267-1.746a16.924,16.924,0,0,1,.455-1.937,11.409,11.409,0,0,1,.836-2.05,19.485,19.485,0,0,1,2.636-3.67,43.548,43.548,0,0,1,3.221-3.354,33.086,33.086,0,0,1,3.655-2.967,26.527,26.527,0,0,1,3.834-2.221,20.47,20.47,0,0,1,7.267-1.932,15.352,15.352,0,0,1,2.895.069,11.836,11.836,0,0,1,2.13.44,5.714,5.714,0,0,1,1.266.547c.273.171.4.313.37.421s-.208.178-.515.214-.746.053-1.3.063c-.554.028-1.219.041-1.983.122a21.2,21.2,0,0,0-2.556.39,23.121,23.121,0,0,0-6.232,2.326,28.922,28.922,0,0,0-3.331,2.137,37.968,37.968,0,0,0-3.3,2.758c-1.087,1.007-2.1,2.057-3.061,3.1a19.6,19.6,0,0,0-2.4,3.019,12.188,12.188,0,0,0-1.279,3.13c-.154.545-.294,1.094-.431,1.624s-.265,1.031-.378,1.509a25.825,25.825,0,0,0-.743,4.519c-.039.542-.051.972-.09,1.277S407.169,262.576,407.061,262.607Z" transform="translate(-405.742 -234.393)" fill="#fce9b9"/>
      </g>
      <g id="Group_862" data-name="Group 862" transform="translate(38.078 4.347)" opacity="0.64">
        <path id="Path_8560" data-name="Path 8560" d="M444.178,240.277a1.459,1.459,0,0,1-1.356.461,5.484,5.484,0,0,1-3.584-1.977,1.462,1.462,0,0,1-.335-1.395,1.353,1.353,0,0,1,1.283-.681,4.7,4.7,0,0,1,3.883,2.142A1.357,1.357,0,0,1,444.178,240.277Z" transform="translate(-438.832 -236.682)" fill="#fce9b9"/>
      </g>
      <g id="Group_869" data-name="Group 869" transform="translate(16.41 14.461)">
        <g id="Group_863" data-name="Group 863" transform="translate(0 0.627)">
          <path id="Path_8561" data-name="Path 8561" d="M425.141,271.26l-2.159,2.977-2.657-1.928,2.1-2.9a15.557,15.557,0,0,1-5.075-6.924l3.812-2.183a13.279,13.279,0,0,0,3.788,5.625l3.219-4.438c-2.431-2.856-5.012-6.229-2.256-10.029,2.044-2.816,5.842-3.75,10.387-1.184l2.139-2.95,2.658,1.928-2.1,2.9a14.855,14.855,0,0,1,4.219,5.532l-3.7,2.306a13.472,13.472,0,0,0-3.063-4.331l-3.276,4.519c2.448,2.829,4.977,6.164,2.26,9.91C433.432,272.854,429.679,273.781,425.141,271.26ZM431,257.587l2.736-3.773c-1.639-.7-2.756-.336-3.392.541C429.671,255.284,430.1,256.369,431,257.587Zm-.074,9.72c.675-.931.27-1.993-.583-3.222l-2.66,3.668C429.226,268.425,430.312,268.157,430.928,267.307Z" transform="translate(-417.351 -247.33)" fill="url(#linear-gradient-3)"/>
        </g>
        <g id="Group_864" data-name="Group 864" transform="translate(7.047 1.591)">
          <path id="Path_8562" data-name="Path 8562" d="M436.191,250.34c-.091.115-.773-.393-2.016-.8a7.35,7.35,0,0,0-8.734,3.146c-.7,1.1-.9,1.93-1.045,1.9-.1-.01-.133-.917.479-2.212a7.217,7.217,0,0,1,9.537-3.435C435.709,249.549,436.265,250.266,436.191,250.34Z" transform="translate(-424.337 -248.286)" fill="#fce9b9"/>
        </g>
        <g id="Group_865" data-name="Group 865" transform="translate(21.64 5.443)">
          <path id="Path_8563" data-name="Path 8563" d="M442.933,257.748c-.245.095-.971-1.276-2.086-2.785s-2.19-2.625-2.025-2.83c.141-.2,1.574.657,2.763,2.29S443.161,257.671,442.933,257.748Z" transform="translate(-438.805 -252.104)" fill="#fce9b9"/>
        </g>
        <g id="Group_866" data-name="Group 866" transform="translate(15.944 13.541)">
          <path id="Path_8564" data-name="Path 8564" d="M434.839,271.067c-.118-.064.154-.717.568-1.735a7.023,7.023,0,0,0,.626-3.986,9.439,9.439,0,0,0-1.875-3.664c-.666-.88-1.083-1.449-.988-1.539s.662.317,1.475,1.116a7.877,7.877,0,0,1,2.286,3.91,5.476,5.476,0,0,1-.127,2.576,8.3,8.3,0,0,1-.816,1.871C435.406,270.6,434.943,271.125,434.839,271.067Z" transform="translate(-433.157 -260.133)" fill="#fce9b9"/>
        </g>
        <g id="Group_867" data-name="Group 867" transform="translate(0.876 12.883)">
          <path id="Path_8565" data-name="Path 8565" d="M424.863,265.839c-.139.2-2.119-1.207-3.46-3.811a11.841,11.841,0,0,1-.737-1.742l.634.208c-1.664,1.017-3.01,1.356-3.078,1.184-.079-.188,1.1-.82,2.608-1.894l.426-.3.21.511c.208.508.458,1.057.749,1.615C423.456,264.031,425.044,265.643,424.863,265.839Z" transform="translate(-418.219 -259.48)" fill="#fce9b9"/>
        </g>
        <g id="Group_868" data-name="Group 868" transform="translate(18.861)">
          <path id="Path_8566" data-name="Path 8566" d="M440.843,249.262c-.147.19-1.369-.506-2.781-1.578l.609-.045-.167.181c-1.255,1.341-2.19,2.529-2.413,2.4s.413-1.594,1.743-3.019l.179-.188.286-.3.322.255C440.011,248.062,440.992,249.071,440.843,249.262Z" transform="translate(-436.05 -246.708)" fill="#fce9b9"/>
        </g>
      </g>
      <path id="Path_8567" data-name="Path 8567" d="M451.441,257.712,410.6,253.194a21.273,21.273,0,0,0-.931,10.208l40.379,5.912S453.7,260.962,451.441,257.712Z" transform="translate(-401.01 -232.191)" fill="#fce9b9" opacity="0.24"/>
    </g>
  </g>
</svg>