<svg xmlns="http://www.w3.org/2000/svg" width="60" height="60" viewBox="0 0 60 60"><defs><style>.a{fill:#ff4490;}</style></defs><path class="a" d="M61,2H33.68a11,11,0,0,0-5.5,1.474L19.513,8.482a5,5,0,0,0-2.5,4.328V14H13a3,3,0,0,0-3,3V28H3a1,1,0,0,0-1,1V59a3,3,0,0,0,3,3H55a3,3,0,0,0,3-3V29.007A1,1,0,0,0,57,28H50V18.477a14.809,14.809,0,0,0,3.844-1.619L55.276,16H61a1,1,0,0,0,1-1V3a1,1,0,0,0-1-1ZM12,17a1,1,0,0,1,1-1H25.993L23.51,17.434a4,4,0,0,0,.645,7.227,6,6,0,1,0,9.157-3.648l5.7-3.292,1.511.507c.158.053.32.092.479.139V20h3v3h2V19h.12A15.081,15.081,0,0,0,48,18.869V35a1,1,0,0,1-1,1H13a1,1,0,0,1-1-1Zm19.236,5.213a4.048,4.048,0,1,1-5.039,2.62,4.006,4.006,0,0,0,1.313-.467ZM33,46H27V38h6ZM10,30v5a2.966,2.966,0,0,0,.184,1H5.414l2.293-2.293a1,1,0,0,0,0-1.414L5.414,30ZM4,31.414,5.586,33,4,34.586ZM56,59a1,1,0,0,1-1,1H5a1,1,0,0,1-1-1V38H25v8a2,2,0,0,0,2,2h6a2,2,0,0,0,2-2V38H56Zm0-24.414L54.414,33,56,31.414ZM54.586,30l-2.293,2.293a1,1,0,0,0,0,1.414L54.586,36h-4.77A2.966,2.966,0,0,0,50,35V30ZM60,14H55a1,1,0,0,0-.514.142l-1.674,1A13,13,0,0,1,46.12,17h-.85a12.91,12.91,0,0,1-4.112-.668l-1.94-.65a1,1,0,0,0-.819.082L26.511,22.633a2.047,2.047,0,0,1-2.736-.735,2,2,0,0,1,.734-2.732l12.991-7.5-1-1.732L29.457,14H19.01V12.81a2.992,2.992,0,0,1,1.5-2.594L29.181,5.2A9,9,0,0,1,33.68,4H60Z" transform="translate(-2 -2)"/><path class="a" d="M15,34h4V32H16V29H14v4A1,1,0,0,0,15,34Z" transform="translate(-2 -2)"/><path class="a" d="M41,34h4a1,1,0,0,0,1-1V29H44v3H41Z" transform="translate(-2 -2)"/><path class="a" d="M16,20h3V18H15a1,1,0,0,0-1,1v4h2Z" transform="translate(-2 -2)"/><path class="a" d="M39,25h2v2H39Z" transform="translate(-2 -2)"/><path class="a" d="M19,25h2v2H19Z" transform="translate(-2 -2)"/><path class="a" d="M29,42h2v2H29Z" transform="translate(-2 -2)"/></svg>