<svg id="Layer_1" data-name="Layer 1" xmlns="http://www.w3.org/2000/svg" width="204.1" height="100.3" viewBox="0 0 204.1 100.3"><defs><style>.cls-1{fill:#1263af;fill-rule:evenodd;}</style></defs><title>Logo-WebMoney</title><path class="cls-1" d="M34.38,26a23.19,23.19,0,0,1,10.46,2.38,9.68,9.68,0,0,1,1.47.8L44,31.14l-3.29-3.29-5.57,5-3.29-3.64L21.55,38.64l6.7,7.27-2.61,2.27,6.59,7.39-2.62,2.27,9.32,10.45,5.57-5.11,4.77,5.45a22.13,22.13,0,0,1-3.18,2.16A24.52,24.52,0,0,1,34.27,74,24,24,0,1,1,34.38,26Z"/><polygon class="cls-1" points="29.95 48.64 35.75 43.41 40.75 49.2 35.18 54.32 29.95 48.64"/><polygon class="cls-1" points="34.04 58.41 39.72 53.3 44.84 58.98 39.16 64.09 34.04 58.41"/><polygon class="cls-1" points="25.86 38.87 31.66 33.64 36.77 39.44 31.09 44.55 25.86 38.87"/><polygon class="cls-1" points="36.32 36.14 40.63 32.16 44.49 36.48 40.29 40.34 36.32 36.14"/><polygon class="cls-1" points="43.93 53.75 48.24 49.89 52.11 54.2 47.79 57.95 43.93 53.75"/><polygon class="cls-1" points="47.79 62.38 51.99 58.52 55.86 62.84 51.54 66.59 47.79 62.38"/><polygon class="cls-1" points="49.38 42.62 52.33 40 54.95 42.84 51.99 45.34 49.38 42.62"/><polygon class="cls-1" points="45.86 34.09 48.7 31.6 51.2 34.32 48.36 36.94 45.86 34.09"/><polygon class="cls-1" points="53.13 51.02 55.97 48.41 58.47 51.25 55.63 53.86 53.13 51.02"/><polygon class="cls-1" points="40.29 44.77 44.61 40.8 48.36 45.12 44.15 48.98 40.29 44.77"/><path class="cls-1" d="M124.36,40.91h-.23a4.69,4.69,0,0,0-3.41-1.25c-3.06,0-5.11,2.16-5.11,5.45V60.79h3.07V45.11c0-2.27,1.48-2.38,2-2.38a1.87,1.87,0,0,1,1.25.45,2.67,2.67,0,0,1,.69,1.93V60.79h3.06V45.11c0-2.27,1.48-2.38,2-2.38a1.89,1.89,0,0,1,1.25.45,2.71,2.71,0,0,1,.68,1.93V60.79h3.07V45.11a6.08,6.08,0,0,0-1.48-4.2,5.46,5.46,0,0,0-3.64-1.25A5,5,0,0,0,124.36,40.91Z"/><path class="cls-1" d="M146.85,46.82a6.57,6.57,0,0,0-5-2,6.32,6.32,0,0,0-4.89,2A9.16,9.16,0,0,0,135,53c0,1.82.23,4.32,1.93,6.14a7,7,0,0,0,9.88,0A9.18,9.18,0,0,0,148.79,53a9.36,9.36,0,0,0-1.94-6.13Zm-1.13,6.93c0,1.48,0,3.18-1.14,4.32a3.61,3.61,0,0,1-2.72,1,3.55,3.55,0,0,1-2.62-1c-1.13-1.25-1.13-2.84-1.13-4.32V52.27c0-1.47,0-3.18,1.13-4.31a3.52,3.52,0,0,1,2.62-1.14A3.39,3.39,0,0,1,144.58,48c1.14,1.24,1.14,2.72,1.14,4.31Z"/><path class="cls-1" d="M151.4,45.11H154v1.37a8.84,8.84,0,0,1,2.27-1.25,6.5,6.5,0,0,1,2.5-.46,4.57,4.57,0,0,1,3.75,1.48,5.52,5.52,0,0,1,1.25,4V60.57h-2.84V50c0-2.5-1.59-3.29-2.95-3.29a5.52,5.52,0,0,0-3.75,1.59V60.57h-2.73V45.11Z"/><path class="cls-1" d="M177.75,57.73c-.56.22-1.13.45-1.81.79a8,8,0,0,1-2.39.34A4.88,4.88,0,0,1,170,57.61a4.7,4.7,0,0,1-1.14-3.52v-.34h9.66V53c0-2.5-.11-4.54-1.7-6.24a6,6,0,0,0-4.55-1.82,6.09,6.09,0,0,0-4.77,2,8.89,8.89,0,0,0-1.82,5.8c0,1.81.23,4.31,1.82,6.13A6.82,6.82,0,0,0,173,61.13a9,9,0,0,0,3.75-.68c.68-.23,1.37-.68,1.93-.91l-.91-1.81Zm-8.86-6.48a4.77,4.77,0,0,1,1-3.29,3.32,3.32,0,0,1,2.38-1,3.45,3.45,0,0,1,2.27.8,4.2,4.2,0,0,1,1,3.29v.68H169l-.12-.45Z"/><path class="cls-1" d="M194,45.23l-6.13,18.4a7.6,7.6,0,0,1-1.48,2.84,3.81,3.81,0,0,1-3.07,1.25,5.15,5.15,0,0,1-2.5-.68,3.9,3.9,0,0,1-1.25-1l1.25-1.71c.23.23.57.46.8.69a3.58,3.58,0,0,0,1.47.34,2.43,2.43,0,0,0,1.71-.8,4.28,4.28,0,0,0,.79-1.93l.34-1.25L179.34,45h3.07l3.86,9.89c.35.9.8,2.38.91,2.72h.12c.45-1.82.79-2.5,1.13-3.75L191.16,45H194Z"/><path class="cls-1" d="M73.69,59.88h.23a5.21,5.21,0,0,0,3.41,1.25c3.06,0,5.11-2.27,5.11-5.45V40H79.26V55.68c0,2.27-1.48,2.39-1.93,2.39a1.44,1.44,0,0,1-1.25-.46,2.47,2.47,0,0,1-.68-1.93V40H72.21V55.68c0,2.27-1.47,2.39-2,2.39a1.44,1.44,0,0,1-1.25-.46,2.5,2.5,0,0,1-.68-1.93V40H65.06V55.68a5.83,5.83,0,0,0,1.47,4.09,5.17,5.17,0,0,0,3.64,1.36A5.09,5.09,0,0,0,73.69,59.88Z"/><path class="cls-1" d="M96.87,57.73c-.46.22-1.14.45-1.82.79a8,8,0,0,1-2.39.34,4.92,4.92,0,0,1-3.52-1.25A5.28,5.28,0,0,1,88,54.09v-.34h9.54V53c0-2.5-.11-4.54-1.59-6.24a6,6,0,0,0-4.66-1.82,6.27,6.27,0,0,0-4.77,2c-1.7,1.82-1.82,4.32-1.82,5.8,0,1.81.23,4.31,1.82,6.13A7,7,0,0,0,92,61.13a11.25,11.25,0,0,0,3.75-.68,14,14,0,0,0,1.82-.91l-.68-1.81ZM88,51.25A4.77,4.77,0,0,1,89,48a2.84,2.84,0,0,1,2.27-1,3.45,3.45,0,0,1,2.27.8,4,4,0,0,1,1,3.29v.68H88Z"/><path class="cls-1" d="M111,46.48a6.51,6.51,0,0,0-4.31-1.59,10.54,10.54,0,0,0-2,.22,8.9,8.9,0,0,0-1.47.57V39.55h-2.73V59.43a11.16,11.16,0,0,0,5.79,1.7,6.3,6.3,0,0,0,5.46-2.5,9.94,9.94,0,0,0,1.59-5.79c-.12-1.59-.23-4.54-2.28-6.36Zm-4.88.45a3.82,3.82,0,0,1,3,1.14c1,1.13,1,2.73,1,4.09v1.25c0,2.61-.46,3.75-.8,4.32a3.62,3.62,0,0,1-3,1.24c-.57,0-1.25-.22-1.82-.22a3.52,3.52,0,0,1-1.25-.68V47.84"/></svg>