<svg id="Layer_1" data-name="Layer 1" xmlns="http://www.w3.org/2000/svg" width="204.1" height="100.3" viewBox="0 0 204.1 100.3"><defs><style>.cls-1{fill:#040404;}.cls-2{fill:#e42a26;}</style></defs><title>Logo-Yandex</title><g id="g10"><path id="path38" class="cls-1" d="M95.91,45.24A9.48,9.48,0,0,0,91.16,47V45.86a.32.32,0,0,0-.37-.37h-3a.33.33,0,0,0-.38.37V69.11a.34.34,0,0,0,.38.38h3a.33.33,0,0,0,.37-.38V49.24a6.44,6.44,0,0,1,3.13-.88c1.62,0,2.87.75,2.87,2.5V69.24a.33.33,0,0,0,.38.37h3a.39.39,0,0,0,.37-.37V49.86C100.91,46.86,99,45.24,95.91,45.24Z"/><path id="path40" class="cls-1" d="M119,33.61h-3a.34.34,0,0,0-.38.38V45.74a9.71,9.71,0,0,0-3-.63c-4.87,0-8.12,4.63-8.12,13.5,0,7.63,3.25,11.63,7.37,11.63a6.23,6.23,0,0,0,4.25-2l.63,1.12c.12.25.25.25.37.25h1.75a.33.33,0,0,0,.38-.37V34c.12-.25,0-.38-.25-.38ZM108.41,57.74c0-4.88,1.38-9.75,4.38-9.75a4.64,4.64,0,0,1,2.87,1.12V66.36a5.78,5.78,0,0,1-2.62.75C109.91,67,108.41,63.24,108.41,57.74Z"/><path id="path42" class="cls-1" d="M130.41,45.11c-5,0-7.37,6.5-7.37,13.5,0,7.38,3.5,11.5,8,11.5a11.28,11.28,0,0,0,5.25-1.5c.25-.12.25-.25.12-.5l-.37-1.5c0-.25-.13-.25-.38-.25a15.56,15.56,0,0,1-3.25.5c-3.62,0-5.37-3.25-5.37-7.62v-1s1.87.25,2.87.25h6.88v-2c0-7.5-2.63-11.38-6.38-11.38Zm-.25,10.25c-1.12,0-3.12.25-3.12.25a10.84,10.84,0,0,1,.12-1.5c.38-4,1.38-6.12,3-6.12s2.38,2.12,2.63,5.75v1.62Z"/><path id="path44" class="cls-1" d="M81.91,48.11A5.63,5.63,0,0,0,76.66,45a12.84,12.84,0,0,0-5.12,1.25c-.25.12-.5.25-.5.5s.12.25.12.37l1,2.13c.13.25.25.25.38.25s.25-.13.37-.13c1.5-.87,2.5-1.5,3.38-1.5a2.63,2.63,0,0,1,2.37,1.88,12.3,12.3,0,0,1,.63,4.12v.5a6.87,6.87,0,0,0-3.38-.87c-4.25,0-6.62,4.12-6.62,8.37,0,4.75,2.75,8.13,6,8.13a5.79,5.79,0,0,0,4.5-2.38s.62,1.38.62,1.5.13.25.38.25h1.75a.32.32,0,0,0,.37-.37V55.49c0-3.13-.12-5.63-1-7.38ZM79.29,65.74A4,4,0,0,1,76.54,67a2.65,2.65,0,0,1-2.25-1.25,6.58,6.58,0,0,1-1-4c0-2.63,1-5.25,3-5.25a4.72,4.72,0,0,1,3,1.12v8.13Z"/><path id="path46" class="cls-1" d="M152.41,45.49h-2.62c-.25,0-.5.12-.5.37-.13.5-1.25,3.38-1.75,4.63-.38.87-1.25,3.37-1.25,3.37h-.13s-.62-1.87-1-2.75-1.75-4.62-2-5.12c-.12-.25-.25-.5-.62-.5h-2.88a.42.42,0,0,0-.37.62c.12.25,4.75,10.75,4.75,10.75s-5,11.75-5.13,12a.43.43,0,0,0,.38.63h2.5a.8.8,0,0,0,.75-.63c.37-1,.87-2.5,1.62-4.62.5-1.5,1.38-4,1.38-4h.12s.88,2.62,1.25,3.5c.88,2.12,1.88,5,2,5.25s.25.5.63.5h2.87c.25,0,.38-.38.25-.63-.37-.62-3-7.37-5-11.62,0,0,4.88-10.88,5-11.13s.25-.62-.25-.62Z"/><path id="path48" class="cls-2" d="M72.29,30.11H69c-.25,0-.5.13-.5.38s-5,15.37-5.38,16.62c-.25.88-1.12,4-1.25,4.75l-1.75-4.75c-.37-1.25-4.37-12.5-4.5-13-.12-.25-.12-.5-.62-.5H51.79a.43.43,0,0,0-.38.63c.13.12,6,15.87,8.38,21.75V69.11a.33.33,0,0,0,.37.38h3.13a.33.33,0,0,0,.37-.38V56c2-5.5,9.25-25.25,9.25-25.5s-.12-.38-.62-.38Z"/></g></svg>